<svg id="accordion-vertical" xmlns="http://www.w3.org/2000/svg" width="22.815" height="22.815" viewBox="0 0 22.815 22.815">
  <path id="Caminho_62" data-name="Caminho 62" d="M3.856,0a.356.356,0,1,0,0,.713h16.4a.356.356,0,1,0,0-.713Z" transform="translate(-1.005)"/>
  <path id="Caminho_63" data-name="Caminho 63" d="M21.745,5H1.069A1.071,1.071,0,0,0,0,6.069V19.616a1.071,1.071,0,0,0,1.069,1.069H21.745a1.071,1.071,0,0,0,1.069-1.069V6.069A1.071,1.071,0,0,0,21.745,5ZM22.1,19.616a.358.358,0,0,1-.356.356H1.069a.358.358,0,0,1-.356-.356V6.069a.358.358,0,0,1,.356-.356H21.745a.358.358,0,0,1,.356.356Z" transform="translate(0 -1.435)"/>
  <path id="Caminho_64" data-name="Caminho 64" d="M20.255,31H3.856a.356.356,0,1,0,0,.713h16.4a.356.356,0,1,0,0-.713Z" transform="translate(-1.005 -8.898)"/>
</svg>
