<svg id="accordion-horizontal" xmlns="http://www.w3.org/2000/svg" width="31.381" height="22.466" viewBox="0 0 31.381 22.466">
  <path id="Caminho_71" data-name="Caminho 71" d="M4.883,23.21a1.077,1.077,0,0,0,1.027.761A1.063,1.063,0,0,0,6.2,23.93l5.857-1.674a1.068,1.068,0,0,0,.73-1.334L7.945,4.77A1.094,1.094,0,0,0,6.626,4.05L.769,5.723A1.07,1.07,0,0,0,.039,7.058ZM.751,6.58a.353.353,0,0,1,.214-.172L6.822,4.735a.364.364,0,0,1,.1-.013.36.36,0,0,1,.344.253l4.844,16.152a.352.352,0,0,1-.029.272.356.356,0,0,1-.215.172L6.005,23.245a.365.365,0,0,1-.439-.24L.722,6.853A.354.354,0,0,1,.751,6.58Z" transform="translate(0.007 -1.508)"/>
  <path id="Caminho_72" data-name="Caminho 72" d="M38.084,5.8,32.37,4.059a1.1,1.1,0,0,0-1.333.706L26.056,20.845a1.07,1.07,0,0,0,.709,1.339l5.714,1.745a1.069,1.069,0,0,0,1.333-.707L38.793,7.141A1.07,1.07,0,0,0,38.084,5.8Zm.028,1.128L33.13,23.011a.362.362,0,0,1-.444.235L26.972,21.5a.35.35,0,0,1-.21-.174.354.354,0,0,1-.026-.272L31.717,4.975a.358.358,0,0,1,.444-.235l5.714,1.744a.351.351,0,0,1,.21.173A.355.355,0,0,1,38.112,6.93Z" transform="translate(-7.46 -1.509)"/>
  <path id="Caminho_73" data-name="Caminho 73" d="M21.713,21.532V.856a.356.356,0,0,0-.713,0V21.532a.356.356,0,0,0,.713,0Z" transform="translate(-6.023 -0.5)"/>
</svg>
