<svg id="article" xmlns="http://www.w3.org/2000/svg" width="27.093" height="22.815" viewBox="0 0 27.093 22.815">
  <path id="Caminho_50" data-name="Caminho 50" d="M26.023,0H1.069A1.071,1.071,0,0,0,0,1.069V21.745a1.071,1.071,0,0,0,1.069,1.069H26.023a1.071,1.071,0,0,0,1.069-1.069V1.069A1.071,1.071,0,0,0,26.023,0Zm.356,21.745a.358.358,0,0,1-.356.356H1.069a.358.358,0,0,1-.356-.356V1.069A.358.358,0,0,1,1.069.713H26.023a.358.358,0,0,1,.356.356Z"/>
  <path id="Caminho_51" data-name="Caminho 51" d="M13.912,16H6.069A1.071,1.071,0,0,0,5,17.069v5.7a1.071,1.071,0,0,0,1.069,1.069h7.843a1.071,1.071,0,0,0,1.069-1.069v-5.7A1.071,1.071,0,0,0,13.912,16Zm.356,6.773a.358.358,0,0,1-.356.356H6.069a.358.358,0,0,1-.356-.356v-5.7a.358.358,0,0,1,.356-.356h7.843a.358.358,0,0,1,.356.356Z" transform="translate(-1.435 -4.593)"/>
  <path id="Caminho_52" data-name="Caminho 52" d="M23.894,5H6.069A1.071,1.071,0,0,0,5,6.069V9.634A1.071,1.071,0,0,0,6.069,10.7H23.894a1.071,1.071,0,0,0,1.069-1.069V6.069A1.071,1.071,0,0,0,23.894,5Zm.356,4.634a.358.358,0,0,1-.356.356H6.069a.358.358,0,0,1-.356-.356V6.069a.358.358,0,0,1,.356-.356H23.894a.358.358,0,0,1,.356.356Z" transform="translate(-1.435 -1.435)"/>
  <path id="Caminho_53" data-name="Caminho 53" d="M28.986,17h-7.13a.356.356,0,1,0,0,.713h7.13a.356.356,0,1,0,0-.713Z" transform="translate(-6.171 -4.88)"/>
  <path id="Caminho_54" data-name="Caminho 54" d="M28.986,21h-7.13a.356.356,0,1,0,0,.713h7.13a.356.356,0,1,0,0-.713Z" transform="translate(-6.171 -6.028)"/>
  <path id="Caminho_55" data-name="Caminho 55" d="M28.986,25h-7.13a.356.356,0,1,0,0,.713h7.13a.356.356,0,0,0,0-.713Z" transform="translate(-6.171 -7.176)"/>
</svg>
