<svg id="calculation" xmlns="http://www.w3.org/2000/svg" width="22.815" height="22.815" viewBox="0 0 22.815 22.815">
  <path id="Caminho_12" data-name="Caminho 12" d="M0,9.625a1.071,1.071,0,0,0,1.069,1.069H9.625a1.071,1.071,0,0,0,1.069-1.069V1.069A1.071,1.071,0,0,0,9.625,0H1.069A1.071,1.071,0,0,0,0,1.069ZM.713,1.069A.358.358,0,0,1,1.069.713H9.625a.358.358,0,0,1,.356.356V9.625a.358.358,0,0,1-.356.356H1.069a.358.358,0,0,1-.356-.356Z"/>
  <path id="Caminho_13" data-name="Caminho 13" d="M27.694,1.069A1.071,1.071,0,0,0,26.625,0H18.069A1.071,1.071,0,0,0,17,1.069V9.625a1.071,1.071,0,0,0,1.069,1.069h8.556a1.071,1.071,0,0,0,1.069-1.069Zm-.713,8.556a.358.358,0,0,1-.356.356H18.069a.358.358,0,0,1-.356-.356V1.069a.358.358,0,0,1,.356-.356h8.556a.358.358,0,0,1,.356.356Z" transform="translate(-4.88)"/>
  <path id="Caminho_14" data-name="Caminho 14" d="M0,26.625a1.071,1.071,0,0,0,1.069,1.069H9.625a1.071,1.071,0,0,0,1.069-1.069V18.069A1.071,1.071,0,0,0,9.625,17H1.069A1.071,1.071,0,0,0,0,18.069Zm.713-8.556a.358.358,0,0,1,.356-.356H9.625a.358.358,0,0,1,.356.356v8.556a.358.358,0,0,1-.356.356H1.069a.358.358,0,0,1-.356-.356Z" transform="translate(0 -4.88)"/>
  <path id="Caminho_15" data-name="Caminho 15" d="M18.069,27.694h8.556a1.071,1.071,0,0,0,1.069-1.069V18.069A1.071,1.071,0,0,0,26.625,17H18.069A1.071,1.071,0,0,0,17,18.069v8.556A1.071,1.071,0,0,0,18.069,27.694Zm-.356-9.625a.358.358,0,0,1,.356-.356h8.556a.358.358,0,0,1,.356.356v8.556a.358.358,0,0,1-.356.356H18.069a.358.358,0,0,1-.356-.356Z" transform="translate(-4.88 -4.88)"/>
  <path id="Caminho_16" data-name="Caminho 16" d="M4.856,7H6.282V8.421a.356.356,0,0,0,.713,0V7H8.421a.356.356,0,0,0,0-.713H7V4.856a.356.356,0,0,0-.713,0V6.282H4.856a.356.356,0,0,0,0,.713Z" transform="translate(-1.292 -1.292)"/>
  <path id="Caminho_17" data-name="Caminho 17" d="M25.421,7H21.856a.356.356,0,0,0,0,.713h3.565a.356.356,0,0,0,0-.713Z" transform="translate(-6.171 -2.009)"/>
  <path id="Caminho_18" data-name="Caminho 18" d="M21.856,23.713h3.565a.356.356,0,1,0,0-.713H21.856a.356.356,0,1,0,0,.713Z" transform="translate(-6.171 -6.602)"/>
  <path id="Caminho_19" data-name="Caminho 19" d="M21.856,25.713h3.565a.356.356,0,0,0,0-.713H21.856a.356.356,0,1,0,0,.713Z" transform="translate(-6.171 -7.176)"/>
  <path id="Caminho_20" data-name="Caminho 20" d="M5,25.911a.358.358,0,0,0,.5,0l1.417-1.417,1.417,1.417a.357.357,0,1,0,.5-.5L7.422,23.989l1.417-1.417a.356.356,0,0,0-.5-.5L6.917,23.485,5.5,22.068a.356.356,0,0,0-.5.5l1.417,1.417L5,25.407A.357.357,0,0,0,5,25.911Z" transform="translate(-1.404 -6.304)"/>
</svg>
