<svg id="cross" xmlns="http://www.w3.org/2000/svg" width="22.87" height="22.87" viewBox="0 0 22.87 22.87">
  <path id="Caminho_79" data-name="Caminho 79" d="M11.435,0A11.434,11.434,0,0,0,3.35,19.52,11.434,11.434,0,1,0,19.52,3.35,11.355,11.355,0,0,0,11.435,0Zm7.58,19.015A10.72,10.72,0,1,1,3.855,3.855a10.72,10.72,0,1,1,15.16,15.16Z" fill="#1a213a"/>
  <path id="Caminho_80" data-name="Caminho 80" d="M18.476,9.947a.355.355,0,0,0-.5,0L14.212,13.71,10.449,9.947a.355.355,0,0,0-.5.5l3.762,3.763L9.948,17.974a.355.355,0,0,0,.5.5l3.762-3.763,3.762,3.763a.355.355,0,1,0,.5-.5l-3.763-3.763,3.762-3.763A.354.354,0,0,0,18.476,9.947Z" transform="translate(-2.777 -2.776)" fill="#1a213a"/>
</svg>
