<?xml version="1.0" encoding="UTF-8"?><svg version="1.1" viewBox="0 0 1500 1500" xmlns="http://www.w3.org/2000/svg" xmlns:xlink="http://www.w3.org/1999/xlink"><!--Generated by IJSVG (https://github.com/iconjar/IJSVG)--><g fill="#FFF"><path d="M724.48,703.08c-0.38,-62.21 0.53,-133.84 -3.52,-195.72c42.47,17 87.18,10.28 87,-45.57c-0.05,-16 -14.69,-174.22 -23.44,-179.23c-1.87,-1.06 -5.43,-1.52 -10,-1.49c3.34,-11.06 -7,-66.66 -25.76,-81.75c-0.12,-0.09 -14.32,-10.55 -25.09,-15.76l-0.88,-0.41l2.84,-23l1.1597e-07,-1.04865e-06c0.21782,-1.96962 -1.18421,-3.74997 -3.15,-4v0l2.19273e-07,2.43275e-08c-1.9662,-0.218141 -3.74503,1.17824 -4,3.14l-2.65,21.57l1.63111e-07,3.09889e-08c-2.66494,-0.506301 -5.34462,0.805033 -6.58,3.22c-1.54,2.6 1.93,5.85 5.17,8.2l-0.14,1.14v0c-3.89,-1.63 -6.29,-0.65 -7.35,1.53c-3.72,-3.55 -7.29,-5.45 -10.51,-3.09c-9.51,3.83 9.23,26.53 7.59,45.58c-0.22,2.63 1.12,7.42 3.28,12.85l-3.21,26.06l-1.28311e-07,1.13204e-06c-0.223429,1.97122 1.18134,3.75505 3.15,4v0l8.44833e-08,9.34301e-09c1.96962,0.217821 3.74997,-1.1842 4,-3.15l1.77,-14.55c4.57,8.59 9.8,16.1 13,17.05v-0.34c0.41,11.17 0.51,11.6 6.57,9.48h0.07c-7.51,2.7 -13,5.83 -13.7,9c-0.06,0.26 0.16,24.39 0.07,40.56c0,0.73 0,2 0,3.8c0,5.07 -0.14,8.88 -0.3,10.08l-15.26,21.88c-6.32,-3.15 -15.09,-6.78 -22.14,-9.69l4.34532e-06,2.29633e-06c-3.73713,-1.97493 -7.6142,-3.67282 -11.6,-5.07999v0c-14.71,-5.54 -37.49,-12.41 -53.69,-18c-0.16,-0.05 -2.75,-0.1 -6.9,-0.13c-2.81,-13.92 -5.32,-26.85 -5.32,-29.11c0,-0.94 39.54,-1.32 39.07,-25.86c-0.82,-43 -14.28,-75.48 -31.05,-93.26v0c20.61,-6.41 25.2,-35.12 4,-48.07c-7.87,-4.81 -19.29,-3.48 -29.64,0.08l8.63,-8.76c-8.82,-0.61 -18.63,7.88 -24.74,16.31c-10.43,5.11 -29.46,9.18 -43.41,19.65c-12.66,9.41999 -14.66,28.36 -10.3,43.03c0.43,1.45 1.07,3.89 1.88,6.94c-8,4.66 -7.9,9.18 -3.68,19.92c5.52,14 12.6,36.47 15,40l-1.83944e-07,-4.07957e-07c0.14849,0.329326 0.332944,0.641222 0.549999,0.929999c-3.64,-2.89 -8.28,-5.95 -9.91,-4.28c-6.63,6.79 -1.32,16.22 5.5,27.71c5.22,8.78 11.84,17.52 11.23,35.38c-37.1,12.72 -76,33 -81.58,47.94c-6.67,25.33 15.65,336.89 15.65,336.89h3.06c4.48,55.27 10.55,164.8 16.73,269.77c7.8,132.62 15.76,257.94 20.87,257.28c1.79,-0.23 5.84,-0.3 11.14,-0.32c0.45,6.07 1,14 1.6,21.06c-4.31,-0.09 -7.77,-0.15 -9.86,-0.15c-1.19,6.84 -0.46,22.67 -1.27,35.25c-3,46.82 -2.63,44.45 -0.42,43.72c3.07,-1 18.94,-0.64 23.16,-0.88c11.57,-0.64 9.45,-25.45 22.08,0.44c1.88,3.84 108.9,8 119,3.79c3.35,-1.39 5.16,-2.94 5.82,-4.55c35.06,0.23 99.08,-2.79 107,-6.32c0,0 -3.28,-19.55 -25.52,-20.44c-43.11,-1.73 -75,-16.46 -89.79,-61.9l0.81,2.48c-2,1 -5.92,1.82 -11,2.38c0.69,-6.68 1.58,-14.71 2.23,-21.79l9,-0.48l33,-417.47m-108,78.82c0.06,-0.74 0.12,-1.39 0.18,-2v-0.15c0,-0.28 0.06,-0.54 0.08,-0.78v0c0,-0.23 0.05,-0.43 0.08,-0.62v-0.12c0,-0.18 0,-0.35 0.07,-0.49v0c0,-0.14 0,-0.25 0.06,-0.34c0.06,-0.09 0,-0.06 0,-0.08l0.05,-0.22l2.12654e-08,-2.00899e-07c0.00562966,-0.0531848 0.00562964,-0.106815 -4.25307e-08,-0.16l1.12664e-08,-7.17257e-08c0.00468352,-0.0298172 0.00468352,-0.0601827 -5.87795e-09,-0.0899999c0,-0.06 0,-0.12 0.05,-0.2v-0.16c0,-0.08 0,-0.16 0,-0.25c0,-0.09 0,-0.13 0,-0.2l0.06,-0.32l0.06,-0.26l0.06,-0.37l0.06,-0.31c0,-0.14 0.06,-0.29 0.08,-0.44c0.02,-0.15 0,-0.22 0.07,-0.34c0.07,-0.12 0,-0.32 0.08,-0.49c0.08,-0.17 0.05,-0.27 0.08,-0.42c0.03,-0.15 0.07,-0.36 0.1,-0.55c0.03,-0.19 0,-0.25 0.07,-0.38c0.07,-0.13 0.07,-0.44 0.11,-0.66c0.04,-0.22 0.06,-0.3 0.08,-0.46c0.02,-0.16 0.1,-0.53 0.15,-0.81v-0.29c0.14,-0.81 0.29,-1.67 0.44,-2.58l0.09,-0.51l0.15,-0.89l0.1,-0.56c0,-0.31 0.1,-0.61 0.16,-0.92l0.08,-0.49c0.06,-0.38 0.13,-0.76 0.2,-1.15l0.06,-0.39c0.06,-0.36 0.13,-0.73 0.19,-1.11l0.12,-0.69c0.05,-0.32 0.11,-0.65 0.16,-1c0.05,-0.35 0.08,-0.44 0.11,-0.66l0.18,-1.08l0.12,-0.68l0.18,-1.07l0.39,-0.65l0.21,-1.28c0,-0.16 0.06,-0.32 0.08,-0.47l0.18,-1.08c0.3,-1.79 0.61,-3.63 0.92,-5.5c0.07,-0.4 0.13,-0.79 0.2,-1.18l0.1,-0.62l0.2,-1.21l0.17,-1l0.17,-1.05c0.08,-0.44 0.15,-0.87 0.22,-1.31c0,-0.14 0,-0.27 0.07,-0.41c0.07,-0.45 0.15,-0.9 0.22,-1.35c0,-0.28 0.1,-0.56 0.14,-0.85l0.18,-1.06l0.18,-1.07c0.06,-0.42 0.13,-0.83 0.2,-1.25v-0.16l0.27,-1.63c0.06,-0.38 0.12,-0.76 0.19,-1.15l0.11,-0.7l0.17,-1c0,-0.27 0.1,-0.55 0.14,-0.83l-8.83,53.92c0,-0.41 0.07,-0.8 0.1,-1.18Zm7,402c-10.1,-8 -17.69,-19.59 -22.21,-39.73l0.56,2.52c-2.56,1.3 -9.43,2 -18,2.35c0.21,-6.59 0.52,-14.66 0.68,-21.86c8.26,-0.6 14.08,-1.65 14.27,-3.51c0.78,-7.78 6.62,-134.19 11.54,-232.12c0.12,-2.48 0.25,-5 0.37,-7.39l0.06,-1.13l0.15,-3.06c0,-0.46 0,-0.92 0.07,-1.38c0.05,-0.87 0.09,-1.73 0.13,-2.59c0,-0.32 0,-0.64 0.05,-1c0.06,-1.18 0.12,-2.35 0.18,-3.51v-0.17c0.06,-1.23 0.12,-2.45 0.19,-3.66v-0.27l0.15,-3c0,-0.42 0,-0.84 0.07,-1.26c0,-1 0.1,-1.93 0.15,-2.88c0,-0.26 0,-0.51 0,-0.76c0.05,-1 0.1,-2.06 0.16,-3.08v-0.4l0.18,-3.47v-0.27c0.06,-1.09 0.11,-2.18 0.17,-3.26v-0.28c0.12,-2.28 0.23,-4.52 0.35,-6.72v-0.46c0.18,-3.4 0.353333,-6.69667 0.52,-9.89l7.11,292.58l15.94,-0.84c0,6.19 0,14.13 0.08,21c-6,0.08 -10.94,0.16 -13.94,0.34c4.18,11.53 1.07,26.57 1.06,39.12Zm166.88,-1028.32c-1.8,5.68434e-14 -3.76,0.1 -5.82,0.26l-7.9877e-07,1.47508e-07c1.91876,-0.354336 3.87729,-0.441831 5.82,-0.26Zm-71.22,93.22l-6.61,9.47c-4.09,-7.83 -8.79,-14.14 -14.19,-18.61c-0.19,-0.13 -0.42,-0.27 -0.65,-0.41Z"></path><path d="M679.4,138.9c5.1,4.84 10.53,7.83 15.32,10.79l-22.18,-16c3.04,2.31 6.57,4.93 6.86,5.21Z"></path><path d="M694.72,149.69l7,5l1.73335e-06,1.49329e-06c-2.17693,-1.87543 -4.51991,-3.54899 -7,-5Z"></path><path d="M672.54,133.71c-2.29,-1.7 -4.31,-3.16 -4.48,-3.22Z"></path><path d="M667.9,161.35l-9.24,-2.28l-4.39827e-07,-1.37316e-07c3.03102,0.946297 6.1167,1.7077 9.24,2.28Z"></path><path d="M667.9,161.35l21.51,5.31c-4.52,-2.23 -13.72,-3.74 -21.51,-5.31Z"></path><path d="M669.89,181.37l9.75,-1l2.26217e-06,-7.12676e-08c-3.2695,0.103002 -6.52761,0.437166 -9.74994,0.99999Z"></path><path d="M669.89,181.37l-8.7,0.85l9.34618e-08,-2.65896e-09c2.91608,-0.082962 5.82296,-0.366966 8.69995,-0.849991Z"></path><path d="M928.57,1165.1c-18.83,27.11 -72.22,90.31 -59.17,139c0.75,2.81 1.29,5.46 1.7,8c-26.13,-2.06 -45.71,-30.23 -29.67,-93.4c4.61,-18.17 32.92,-50 30.49,-50.93c-27.26,-10.32 -60.61,43.12 -64.22,59.57c-4.32,19.72 -22.36,88.22 43.38,117c16.09,7 37.19,6.31 47.37,3.15l1.39217e-06,1.5691e-07c9.92363,1.11848 19.9036,1.66272 29.89,1.63c47.36,0.46 149.26,-2.09 182.6,-0.5c7.6,0.36 23.19,-14 7.18,-31.43c-6.1,-6.64 -12.72,-10.38 -12.72,-10.6c0,-9.81 -1,-17.5 -1.45,-35.45c-0.69,-29.71 2,-227.45 1.22,-230.74c2.55,-1.44 4,-2.84 4.3,-4c1.45,-5.58 -0.73,-20.57 -2.6,-19.42l1.85471e-06,-1.12546e-06c-0.838235,0.508651 -1.70278,0.972632 -2.59,1.39c2.24,-4.27 0.67,-16.5 9.4,-19.58c17.72,-6.25 34.56,-37.69 21.6,-47.67c-28.58,-22 -29.38,-5.09 -35,-40.2c-3.49,-21.87 1.34,-21.38 -9.34,-43.83c-7.1,-14.94 -25.29,37.31 -26.77,44.43c-0.92,4.41 -24.34,4.4 -29.67,4.4c-3.19,-12.44 -10.75,-36.2 -12.54,-49c-2.55,-18.21 -31.16,18.38 -32.5,61.85c-0.61,19.89 3,80.86 1.53,84.7l0.33,0.25l-0.6,-0.25c-5.8,-2.46 -1.14,17.26 -4.34,23.28l-3.8709e-07,-1.03927e-07c1.12497,0.302035 2.23038,0.67273 3.31,1.11c1.13,29.14 -15.69,61.81 -61.12,127.24Zm134.49,-115.89c4.06,-0.233333 7.85333,-0.566667 11.38,-1c-3.78667,0.526667 -7.58,0.86 -11.38,1Z"></path></g><path fill="#000" d="M524.22,1271.73h0.26h1.8c-0.43,-5.49 -0.87,-11.35 -1.24,-16.32h-4.11c0.31,4.18 0.68,9 1,13.79c0.06,0.82 0.12,1.63 0.19,2.43Z"></path><g fill="#000"><path d="M570.16,1271.66c0,-1.18 0.08,-2.38 0.12,-3.59c0.18,-5.26 0.32,-9.74 0.42,-13.56l-2.05,0.16l-2.06,0.13c-0.12,4.63 -0.28,9.31 -0.41,13.13c0,1.34 -0.09,2.64 -0.13,3.89l2.06,-0.07Z"></path><path d="M618.59,1247h0.09c0.09,-2.25 0.21,-5.76 0.34,-10.36c0.84,-29.56 2.32,-104.05 2,-178.05c-0.47,-104.42 -4.21,-171.5 -10.87,-195.86l-7.6,46.45c-0.62,8 -1.59,24.1 -2.88,48.06l7.05,290.39Z"></path><path d="M469.12,728.75h5.13h2.05c3.63,45.4 8.25,124.87 13.07,207.7c1.15,19.87 2.32,40 3.5,59.93c4.64,78.93 14.21,241.57 19.67,255.26c1.8,-0.13 4.6,-0.19 8.08,-0.22h6.07l-0.75,-2.77l-1.03841e-07,2.81907e-08c-0.60341,0.163814 -1.09549,0.600395 -1.33,1.18l-6.90043e-08,1.51347e-07c-0.0421584,0.0924657 -0.0724004,0.189912 -0.0899999,0.289999l2.15474e-08,-1.74448e-07c0.0336013,-0.272037 0.0503,-0.545896 0.05,-0.82c0,-0.78 0,-2 0,-3.69c0,-0.64 0,-1.35 -0.06,-2.12c-0.06,-0.77 0,-1.36 -0.07,-2.11c-1,-29.49 -6.72,-127.46 -12.25,-222.67c-7.32,-125.71 -14.86,-255.59 -15.59,-290.46c0,-0.72 0,-1.41 0,-2v0h2.06h2c0,0.63 0,1.31 0,2c0.28,13.58 1.65,42.35 3.62,79.5c10.15,-18.85 31.22,-66.06 33,-80.55l2.51288e-07,-1.97519e-06c0.0843717,-0.663185 0.121132,-1.33156 0.11,-2l2,-0.07l2.07,-0.08v0l4.51878e-07,1.8484e-05c0.0168169,0.687912 -0.0132533,1.37617 -0.0900018,2.05999c-1.79,17.59 -28.94,75.73 -36.58,88l-0.14,0.23c3.09,57.57 7.47,133.07 11.54,203.21c3.54,60.79 6.87,118.21 9.21,161.12c1.25,23 2.11,39.84 2.63,51.51c0.16,3.52 0.28,6.55 0.37,9.13c0,0.74 0,1.45 0.07,2.11c0.07,0.66 0.05,1.46 0.07,2.11c0,0.35 0,0.7 0,1c0.07,3.24 0.11,5 -0.23,5.95h2.5c9.22,0 24.45,0 35.78,-0.64l2.06,-0.13l2,-0.16c5.12,-0.42 8.93,-1 10.17,-1.9c0.54,-6.45 2.84,-54.19 5.51,-109.27c1.88,-38.89 4,-83 6,-122.35c1.25,-24.85 2.26,-44.39 3.09,-59.73l-0.65,-26.75l3.63,-22.15l-7.67791e-07,2.18534e-05c0.0752141,-2.14081 0.329433,-4.27158 0.759996,-6.37c0.42,-1.52 4,-22.61 7.81,-46l6,-36.89v0v0l4.05,0.66c-1.18,7.25 -3.38,20.73 -5.69,34.78c18.33,37.73 13.51,315.51 11.63,381.6c0,0.75 0,1.46 -0.06,2.15c-0.06,0.69 0,1.47 -0.06,2.15c-0.09,2.68 -0.16,4.85 -0.22,6.46l42,-2.23l2.08,-0.11l2,-0.11l4.89,-0.26l32.95,-415.03l1.87,2.41l1.86,2.39c44.49,56.69 104.35,116.36 142.73,137.33c13.43,7.33 24.91,13.93 36,20.32c30.92,17.78 55.34,31.82 96.65,46.94l1.67,0.62v-0.09l0.28,0.1c0.52,27.3 -14.72,58.35 -60.81,124.71c-2.38,3.41 -5.26,7.35 -8.6,11.91c-23.38,31.92 -62.52,85.33 -50.87,128.8c0.68,2.53 1.18,4.93 1.57,7.21c-25,-3.4 -43.16,-31.72 -27.56,-93.17c4.61,-18.17 32.92,-50 30.49,-50.93c-27.26,-10.32 -60.61,43.12 -64.22,59.57c-4.32,19.72 -22.36,88.22 43.38,117c13.65,6 30.88,6.35 42,4.4c8.22,1.52 19.54,2.27 35.22,2.43c4.12,0 8.62,0.06 13.45,0.06c18.31,0 41.25,-0.26 65.24,-0.53c41.51,-0.47 84.44,-1 103.83,0c4.51,0.2 11.38,-3.77 14.57,-10.59c2.09,-4.45 4.1,-13.53 -5.78,-24.28l-9.49443e-07,-1.01293e-06c-3.63011,-3.87283 -7.70501,-7.30327 -12.14,-10.22v0c0,-4.44 -0.26,-8.45 -0.55,-13.43c-0.32,-5.58 -0.68,-11.91 -0.9,-21c-0.36,-15.54 0.21,-77.91 0.71,-132.93c0.23,-25.76 0.46,-50.1 0.57,-68.1c0.06,-9.64 0.09,-16.7 0.08,-21.58c0,-3.4 0,-5.57 -0.08,-7c2.37,-1.53 3.79,-3.09 4.18,-4.58c1.29,-5 0.09,-19.35 -2.89,-21.55l-3.15044e-08,-2.37594e-08c-0.347455,-0.262039 -0.757974,-0.427627 -1.19,-0.48c0.1,-0.57 0.2,-1.15 0.3,-1.76c0.82,-5 1.74,-10.66 6.68,-12.4c12.23,-4.32 24.94,-20.59 27.21,-34.82c1.17,-7.3 -0.58,-13 -5,-16.41l3.76112e-06,2.97795e-06c-6.56818,-5.20049 -13.7813,-9.52973 -21.46,-12.88c-8,-3.61 -9.26,-4.16 -12.74,-26l-6.19556e-06,-3.83653e-05c-0.850424,-5.26616 -1.37807,-10.5794 -1.57999,-15.9099c-0.41,-8.21 -0.65,-13.16 -7.94,-28.48c-1.66,-3.5 -3.91,-4 -5.51,-3.81c-10.51,1.26 -24.11,44.5 -25.09,48.55c-0.46,0.47 -3.9,2.81 -26.1,2.92c-0.93,-3.5 -2.13,-7.73 -3.4,-12.18c-3.33,-11.69 -7.47,-26.24 -8.7,-35.07c-0.86,-6.15 -4.44,-6.63 -5.94,-6.54c-10.75,0.58 -29.57,34 -30.64,68.61c-0.29,9.55 0.36,28.06 1,46c0.52,14.78 1.11,31.29 0.83,36.61l-1.49566e-07,2.46291e-08c-0.476431,0.078454 -0.930188,0.259274 -1.33,0.53c-2.51,1.69 -2.44,6.21 -2.35,12.47l-2.7078e-07,-5.32961e-06c0.166947,3.28592 0.0263359,6.58026 -0.419999,9.84c-39.8,-14.73 -63.8,-28.53 -94,-45.93c-11.12,-6.39 -22.62,-13 -36.1,-20.36c-38.88,-21.23 -99.93,-82.45 -144.26,-139.67l-1.86,-2.43l-1.9,-2.62002l8,-101.94l2.07,-0.07l2.06,-0.07l5.49,-0.19l2,-0.07v-2c-0.19,-17.79 -0.22,-36.23 -0.26,-55.76c-0.09,-50.92 -0.18,-104.61 -3.17,-152.65c12.61,4.73 24.94,7.2 36.1,7.2l2.18302e-06,1.18675e-08c4.76983,0.0259302 9.52817,-0.470359 14.19,-1.48c23.63,-5.29 36.59,-24.6 36.5,-54.39c0,-7.81 -3.59,-50.7 -8.47,-93.94c-9.39,-83.28 -14.19,-86 -16,-87.06c-1.81,-1.06 -4.78,-1.56 -8.54,-1.71c0.86,-7.6 -1.12,-22.91 -5.06,-37.88c-3.22,-12.25 -10.34,-34.2 -21.88,-43.47c-0.11,-0.09 -14,-10.36 -25,-15.79l2.65,-21.51l3.81607e-08,-3.14409e-07c0.376821,-3.10466 -1.82699,-5.92983 -4.93,-6.32v0l1.95317e-07,2.37061e-08c-3.10466,-0.376822 -5.92983,1.82699 -6.32,4.93l-2.43,19.71l-2.30042e-07,1.52479e-08c-2.77621,0.184017 -5.25357,1.80776 -6.53,4.28c-1.57,2.65 -0.29,5.32 1.88,7.64l-5.67155e-07,1.11495e-07c-0.998999,0.19639 -1.93159,0.64376 -2.71,1.3c-3.75,-3.11 -7.52,-4.51 -11.26,-1.92c-6.55,2.86 -3.31,11.23 0.44,20.91c3.21,8.3 6.86,17.72 6.12,26.3c-0.24,2.8 1.06,7.73 3.22,13.31l-3.16,25.52l-1.08633e-07,9.06111e-07c-0.373415,3.11467 1.84881,5.94233 4.96349,6.31574c0.0121665,0.00145863 0.0243377,0.00287788 0.0365134,0.00425773l-1.72868e-07,-1.12341e-08c0.229758,0.0149311 0.460242,0.0149311 0.69,2.24682e-08l-2.86816e-08,5.19549e-11c2.86837,-0.00519869 5.28106,-2.15172 5.62,-5l1,-8.34c3.38,5.57 6.89,10.09 9.72,11.86c0.18,4.53 0.37,7.14 1.15,8.74c-4.9,2.43 -7.6,4.93 -8.22,7.59c-0.08,0.33 -0.08,0.33 0,9.24c0,8.14 0.1,21.54 0.05,31.75c0,0.77 -0.05,2.1 0,3.86c-0.05,4.95 -0.13,8.65 -0.28,9.79l0.47,0.06c0.08,3.53 0.18,7.55 0.3,11.88c0.12,4.33 0.25,9.58 0.37,14.88l2.91202e-06,9.71e-07c-2.99265,-0.997885 -5.87452,-2.30143 -8.59999,-3.88999c-6,-3.63 -18,-8.61 -27,-12.32c-7.47,-4.24 -26.18,-10.3 -44.31,-16.17c-7.65,-2.48 -14.88,-4.82 -21.23,-7l2.89837e-07,2.53959e-08c-1.95843,-0.171601 -3.92423,-0.245026 -5.89,-0.22c-2.18,-10.87 -4.21,-21.29 -4.78,-25.46l0.88,-0.11c9.51,-1.25 38.45,-5.05 38,-27.41c-0.59,-31 -8,-59.59 -20.82,-80.4l3.45107e-06,5.65966e-06c-2.58057,-4.23207 -5.50368,-8.2455 -8.73998,-12l-4.30017e-07,1.89e-07c8.83339,-3.88244 14.9538,-12.1482 16.09,-21.73c1.43,-11.57 -4,-22.34 -14.61,-28.8c-9.73,-6 -24.9,-3.36 -37.92,2.46l2.96709e-06,-2.71135e-06c-1.50826,1.37826 -2.93406,2.84413 -4.27,4.39c-1.18,1.35 -2.27,2.75 -3.26,4.13l-2.17325e-06,3.03353e-06c-1.33713,1.86643 -2.52418,3.83594 -3.55,5.89l7.62386e-07,-1.59648e-06c-4.28107,8.96482 -10.1915,17.0556 -17.43,23.86l-0.43,0.61l-3.39,-2.31l-1.96926e-07,3.31873e-07c0.24496,-0.412822 0.533257,-0.798337 0.86,-1.15l-1.4003e-06,1.30403e-06c6.95807,-6.4797 12.6248,-14.2197 16.7,-22.81c0.2,-0.4 0.41,-0.82 0.64,-1.23c0.49,-0.94 1.05,-1.9 1.67,-2.87c0.62,-0.97 1.4,-2.13 2.18,-3.21c-3.29,1.57 -7.45,3.06 -12.12,4.74c-9.62,3.44 -21.6,7.73 -31.14,14.89c-13.79,10.36 -15.37,30.76 -11,45.32c0.36,1.18 0.86,3.06 1.48,5.43c-7.58,4.94 -7.66,10.29 -3.21,21.59c2.33,5.83 4.83,13.07 7.33,20.07c2.13,6.06 3.83,10.87 5.18,14.36c-2.64,-1.23 -5,-1.48 -6.45,0.05c-7.91,8.1 -1.24,19.33 5.21,30.18c0.53,0.9 1.08,1.8 1.63,2.71c4.69,7.69 9.53,15.63 9.35,30.16c-35.33,12.27 -75.42,32.51 -81.49,48.69l-0.06,0.2c-6.64,25.34 14.75,324.8 15.67,337.53Zm558.88,593.15c-8.37,-7.57 -18.78,-17 -11.07,-35.67c11.27,-27.32 -2.12,-69.81 -21.69,-92.36c-10.46,-12 -21.57,-17.32 -31.27,-14.84l-1,-4c11.28,-2.89 23.85,2.84 35.38,16.12c10.34,11.92 18.86,28.78 23.36,46.29c4.9,19 4.55,36.91 -1,50.33c-6.61,16 1.85,23.66 10,31c5.41,4.89 10.52,9.51 10,16.08l-4.09,-0.32c0.38,-4.48 -3.76,-8.26 -8.62,-12.63Zm78.39,-302.37c1,3.35 2.11,12.31 1.07,16.29c-0.15,0.59 -1,1.42 -2.56,2.35l-0.55,0.23l2.08109e-06,-8.48142e-07c-8.44602,3.44215 -17.261,5.89839 -26.27,7.32c-5.17,0.72 -11,1.28 -17.63,1.56l-1.59,0.06c-20.2,0.26 -42.28,-3.71 -66.58,-11.93l8.30423e-08,2.11561e-07c-0.356626,-0.90855 -1.28051,-1.46288 -2.25,-1.35l1.5782e-08,-7.74435e-10c-0.261679,0.0128439 -0.520547,0.0599109 -0.769999,0.14l-9.60332e-07,7.60433e-06c0.422095,-3.34233 0.552588,-6.71505 0.390001,-10.08c0,-3 -0.11,-7.33 0.45,-8.76l0.19,0.07c13,9.89 40.2,15.28 65.83,15.28c19.23,0 37.54,-3 48.18,-9.46l-1.22287e-07,7.52439e-08c0.571205,-0.351465 1.05642,-0.826428 1.42,-1.39Zm-99,-96.43c0,-1.84 1,-13.27 2.55,-24.47c3.21,-23.1 5.67,-23.54 7.46,-23.86l0.72,4l1.15313e-07,-1.95103e-08c0.185194,-0.0313337 0.360123,-0.106793 0.51,-0.22c-3.16,3.13 -7.14,39.29 -7.14,44.51Zm71.63,-7.6c0,-9.47 3.17,-19.13 6.24,-28.47c0.9,-2.75 1.76,-5.35 2.53,-7.93l3.93,1.17c-0.79,2.64 -1.69,5.38 -2.56,8c-3,9 -6,18.38 -6,27.19Zm39.29,39.1c5.44,0.08 9.74,0.15 12.12,3.28c2,2.63 2.08,6.69 0.27,13.6c-1.36,5.16 -4.44,8.9 -8.48,10.27l-5.15215e-08,1.70814e-08c-1.15137,0.381727 -2.35701,0.574226 -3.57,0.57c-2.88,0 -6.59,-1 -11,-4.48l-0.22,-0.2c-4.28,-4.44 -7.28,-12.22 -4.89,-17.54c1.22,-2.72 4.29,-5.89 12,-5.59c1.31,0.05 2.56,0.07 3.75,0.09Zm-642.31,-230h-2.05h-1c-0.29,-4.11 -1,-14.52 -2,-29.27c0,-0.34 -0.05,-0.68 -0.07,-1c0,-0.67 -0.09,-1.35 -0.14,-2.05c-5.56,-81.48 -18.53,-281.56 -13.44,-301.85c4.44,-11.49 33.59,-29.18 69.87,-42.87c0.09,0.52 0.31,1.65 0.89,4.46c0.17,0.82 0.37,1.81 0.61,3c0.07,0.36 0.15,0.72 0.23,1.12c0.12,0.61 0.26,1.26 0.39,1.93c1.65,8 4.09,19.88 5.89,29.12c0.12,1.15 0.26,2.47 0.41,3.95c0.07,0.71 0.15,1.45 0.22,2.22c0.07,0.77 0.15,1.43 0.23,2.18c2,20 5.72,57.7 7.48,79.37c-10.3,25.57 -1.57,60.48 15,97.65c-28.86,-13.65 -60.55,-52.62 -85.29,-131l-3.91,1.23c26.22,83.14 60.68,122.84 91.68,135.21c15.44,33.32 36.68,68.15 55.78,99.48c2.08,3.4 4.12,6.73333 6.12,10l1.22,2l1.22,2c6.07,10 11.68,19.43 16.56,28.07c-62.3,2.16 -141.09,4.68 -165.9,5.05Zm45.55,-444.23c1.11,0 3.92,1.7 7.06,4.15c1.6,1.25 3.29,2.69 4.88,4.21l0.17,0.16l1.22,1.17l0.36,-0.33l1.06,-1l0.52,-0.51l1.46,-1.56l2.09,-2.3c0.12,-0.13 0.23,-0.26 0.36,-0.39l1.78,-2c0.67,-0.74 1.38,-1.52 2.13,-2.33c8.35,-9.11 21.24,-22.69 31.49,-29.78c0.48,-0.33 1,-0.66 1.42,-1l0.55,-0.34c0.7,-0.45 1.36,-0.84 2,-1.19c4.36,-2.46 6.52,-2.57 7.58,-2.15c0.34,0.14 1.39,0.56 2.06,3.37c0.48,2 -0.51,6.46 -1,8.6c-0.49,0.75 -1.15,1.83 -2,3.17c-1.14,1.86 -3.53,5.79 -5.84,9.1c-0.75,1.06 -1.48,2.06 -2.16,2.9l5.28153e-08,-6.99925e-08c-0.63141,0.836764 -1.3636,1.59247 -2.18,2.25l9.44283e-09,-6.58144e-09c-0.167051,0.116431 -0.348584,0.210559 -0.54,0.28l0.33,1.82l0.4,2.21l1.80366e-07,-3.73104e-08c0.50787,-0.105058 0.994587,-0.294337 1.44,-0.56l1.11129e-07,-6.75174e-08c0.836242,-0.508069 1.59984,-1.12702 2.27,-1.84c2.59,-2.63 5.71,-7.34 9.78,-14l0.66,-1.08l4.83174e-07,-1.1219e-07c0.283926,-0.0659259 0.561625,-0.156262 0.829998,-0.269999l-2.65198e-07,1.49308e-07c0.799838,-0.450315 1.74551,-0.565378 2.63,-0.32c0.76,0.36 1.43,1.41 1.94,3c0.57,1.86 -0.32,5.08 -1,7.43c-0.59,2.1 -1,3.66 -0.78,4.91c-0.63,0.84 -1.35,2 -2.31,3.52c-2.12,3.42 -5,8.11 -8.42,10.6l2.42,3.31c4,-3 7.19,-8 9.49,-11.75c0.68,-1.1 1.48,-2.39 2.06,-3.17l2.98455e-07,1.61895e-07c0.670513,0.363716 1.19632,0.94599 1.49,1.65c1.54,3.25 0.92,10.17 -4.06,17.69c-10.14,15.29 -8.67,30.83 -6.31,41c0.16,0.71 0.33,1.4 0.5,2.05c0.17,0.65 0.37,1.4 0.56,2c0.32,1.13 0.62,2.15 0.89,3c0.13,0.4 0.25,0.81 0.37,1.21v0.13c-3.52,-0.44 -10.24,-1.15 -19.55,-2.14c-6,-0.63 -13,-1.37 -19.12,-2.05c-5.13,-0.57 -9.6,-1.09 -12.32,-1.48l-1.21,-0.0200036v-0.59c0,-0.51 0,-1 0,-1.52c0,-0.52 0,-1 0,-1.43l4.8626e-07,2.41138e-05c-0.0613092,-3.04038 -0.372355,-6.07057 -0.929996,-9.06c-1.73,-9.05 -5.52,-15.28 -9,-21l-1.61,-2.66c-7.09,-12 -11,-19.64 -5.92,-25.09Zm9.88,1l-0.18,-0.34c-1.22,-1.85 -4.36,-10.78 -7.4,-19.42c-2.46,-7 -5,-14.27 -7.35,-20.22c-3.27,-8.32 -4.17,-12.23 0.52,-15.89l-1.20905e-06,9.39929e-07c0.572051,-0.444719 1.16975,-0.855427 1.79,-1.23c0.56,-0.34 1.18,-0.69 1.85,-1c2.16,-1.13 4.89,-2.32 8.29,-3.68c2.32,-0.93 4.89,-2.22 7.61,-3.58l-5.03841e-06,2.61067e-06c3.29724,-1.70847 6.67814,-3.25041 10.1299,-4.61998c0.82,-0.31 1.62,-0.59 2.4,-0.83c0.78,-0.24 1.61,-0.46 2.37,-0.62l-1.58516e-06,3.60516e-07c1.11589,-0.253791 2.25567,-0.387882 3.4,-0.4l-4.25928e-08,2.01999e-09c2.6961,-0.127865 5.27251,1.12267 6.84,3.32c0.43,0.59 0.87,1.27 1.33,2c0.36,0.59 0.72,1.23 1.09,1.91c0.37,0.68 0.67,1.26 1,1.94l-6.11178e-06,-1.28129e-05c4.11907,8.63532 7.59517,17.5629 10.4,26.7099l-0.2,0.13c-9.62,6.22 -21.7,18.48 -30.5,27.93c-0.73,0.78 -1.44,1.54 -2.12,2.29l-2.13,2.32l-2.89,3.17l-2.86,3.14c-1.07,-1 -2.19,-1.95 -3.31,-2.85l-3.15134e-08,-4.51182e-08c-0.0419614,-0.0600766 -0.0787275,-0.123619 -0.109899,-0.189939Zm74.94,28.17c-3.08,0.4 -4.62,0.6 -4.62,2.56c0,2.23 2,12.71 4.86,27c-3.86,0 -8.53,0 -13.48,0c-2.31,-9.45 -4,-24.32 5.5,-38.71c5.19,-7.82 6.9,-16.34 4.36,-21.72l-3.10193e-08,-7.33225e-08c-0.796407,-1.88252 -2.35643,-3.33709 -4.29,-4c0.14,-0.66 0.38,-1.55 0.58,-2.26c0.83,-3 1.86,-6.73 0.94,-9.73c-0.87,-2.79 -2.24,-4.66 -4.1,-5.54l-6.24334e-08,-2.93572e-08c-0.956917,-0.449958 -2.01761,-0.633074 -3.07,-0.53c0.6,-2.77 1.23,-6.5 0.65,-8.94c-0.77,-3.24 -2.29,-5.33 -4.53,-6.23c-2.49,-1 -5.73,-0.43 -10,1.79c-2.61,-8.26 -7.12,-20.48 -11.38,-28.36l8.89132e-07,-1.7865e-06c1.14852,-2.30768 1.99225,-4.75484 2.51,-7.28c2.94,-2.93 29.08,-9.87 40.85,-12.41c16.21,17.89 28.89,50.19 29.67,91.06c0.33,18.76 -25.88,22.16 -34.48,23.29Zm9.21,33.82c6.33,2.17 13.49,4.49 21.07,6.94c11.13,3.61 23.15,7.5 32.15,10.88c1.35,0.83 4.81,2.27 11.37,5l0.27,0.11c0.31,0.18 0.6,0.36 0.86,0.53c18,15 29.61,52.41 35.56,114.51c0.71,7.46 1.33,15.12 1.87,22.91c0.1,1.52 0.21,3.05 0.31,4.58c3.11,48.29 3.2,102.05 3.29,154.32c0,18.8 0.06,36.6 0.24,53.79l-3,0.1l-2.06,0.07l-2.06,0.08c-13,0.44 -38.77,1.33 -68.87,2.33c-4.83,-8.64 -10.42,-18 -16.47,-28.06l-1.23,-2c-0.4,-0.67 -0.81,-1.34 -1.22,-2c-2.38,-3.92667 -4.82,-7.92667 -7.32,-12l-1.78,-2.93c-0.34,-3.83 3.25,-17.63 7,-32.22c9.23,-35.48 21.81,-83.86 12.19,-102.68l1.2695e-06,-4.17523e-06c4.56593,-15.0168 5.254,-30.9454 2,-46.3c-0.57,-2.83 -1.66,-9.05 -3.17,-17.66c-3.37,-19.33 -8.48,-48.54 -13.8,-73.73c-1.49,-7 -2.83,-13 -4.07,-18.11c-2,-8.44 -3.74,-14.51 -5.19,-18.88c-1.64,-5 -3,-7.77 -4,-9.37l2.99856e-08,5.86006e-08c-0.575763,-1.12521 -1.57625,-1.97454 -2.78,-2.36c-1.66,-0.55 -5.66,-1.56 -11,-2.74c-0.17,-0.87 -0.49,-1.94 -0.92,-3.34c-0.17,-0.57 -0.36,-1.19 -0.55,-1.86h13.2h2.09h2.1c1.95,0.0100042 3.34,0.0400042 3.89,0.0800042Zm-71.17,147.76l4.06,0.63c0.72,-4.63 -5.1,-63.82 -7.86,-91.28l1,-0.07c0,-0.65 -0.24,-1.93 -0.54,-3.71c-0.11,-0.65 -0.24,-1.36 -0.38,-2.14l-0.39,-2.16c-1.66,-8.87 -4.62,-23.37 -7.44,-37.1c-0.18,-0.84 -0.34,-1.65 -0.5,-2.43c-0.22,-1 -0.42,-2 -0.59,-2.85c-0.26,-1.28 -0.46,-2.27 -0.56,-2.79v-0.14c0,-0.09 0.13,-0.21 0.38,-0.38v0l2.61993e-07,-1.53157e-07c1.04992,-0.613765 2.21333,-1.00837 3.42,-1.16c0.44,-0.07 0.9,-0.14 1.39,-0.19l-2.88435e-07,-9.38267e-08c0.373268,0.121423 0.75408,0.218296 1.14,0.289999c0.62,0.12 1.33,0.22 2.12,0.34c1.9,0.27 4.59,0.6 8.23,1c6.68,0.78 15.53,1.71 23.33,2.53c10,1.05 20.28,2.14 21.67,2.44l2.59978e-08,1.98156e-09c0.0632413,0.00482028 0.126758,0.0048203 0.189999,6.98954e-08c5.59,1.18 10,2.26 12.23,3c0.82,0.48 3.58,3.94 9.16,26.89c0.26,1 0.51,2.12 0.78,3.25c0.2,0.84 0.4,1.7 0.6,2.58c1,4.13 2,8.77 3.08,14c5.23,24.89 10.25,53.58 13.56,72.56c1.51,8.65 2.61,14.89 3.2,17.78c8,39.55 -9.89,76.8 -40.85,84.81c-9.39,2.43 -19.87,2 -30.85,-2c-15.14,-32.92 -24.34,-64.06 -19.7,-88.26l1.2674e-06,1.34431e-05c0.142884,1.51554 0.182977,3.03901 0.120004,4.55997Zm38.59,91.34l-1.34574e-06,-1.8747e-09c4.34515,0.00605281 8.67335,-0.541693 12.88,-1.63c18.21,-4.71 32.22,-18.77 39.73,-37.41c5.63,20.08 -6.08,65.11 -14.06,95.76c-3.32,12.78 -5.6,21.67 -6.6,27.46c-16.89,-27.75 -34.84,-57.81 -48.59,-86.72l-2.45509e-06,-7.54389e-07c5.39236,1.65694 10.9989,2.51274 16.64,2.54Zm122.74,205.75l-3.88,1.34c-1.74,-5 -16.82,-55.71 -19.35,-67.18c-0.2,-0.89 -0.32,-1.55 -0.36,-1.92l2.05,-0.19l2,-0.18c0,0 0,0.08 0,0.11c0,0.4 0.19,1.09 0.41,2c2.75,11.59 17.32,60.81 19.13,66.02Zm15.92,-544.21c-1.12,-3 -2.25,-6.13 -3.18,-8.81c-0.61,-1.75 -1.13,-3.3 -1.51,-4.56c0,-0.15 -0.1,-0.32 -0.14,-0.47l1.32275e-06,4.41654e-06c-0.513156,-1.71338 -0.92059,-3.45666 -1.22,-5.22c-0.75,-4.61 0.31,-5.41 0.37,-5.45l-6.0773e-08,3.41527e-08c0.0956065,-0.0537281 0.201019,-0.0877322 0.31,-0.1l6.54923e-08,-6.40728e-09c0.123039,-0.0120373 0.24696,-0.0120374 0.369999,-9.88172e-08l2.1162e-07,8.86229e-09c0.566146,0.0237092 1.12561,0.131558 1.66,0.32l-8.6673e-07,-2.74342e-07c0.686786,0.217385 1.3555,0.488213 2,0.81c0.62,0.31 1.33,0.7 2.14,1.19l0.37,0.29l-0.06,0.11l0.67,0.36c1.43,1.11 2.69,2 3.62,2.72l-4.78174e-06,-3.66694e-06c1.0161,0.779211 2.07077,1.5068 3.16,2.18l-2.94405e-07,-2.52773e-07c3.2459,2.78689 6.22847,5.86654 8.91,9.2l3.24,-2.51l4.83586e-07,6.0498e-07c-4.16054,-5.20496 -9.03144,-9.79983 -14.47,-13.65c-1.14,-0.83 -2.24,-1.57 -3.26,-2.19c-1.18,-0.93 -2.42,-1.94 -3.67,-3c-0.63,-0.52 -1.25,-1.05 -1.87,-1.59c-0.62,-0.54 -1.25,-1.11 -1.86,-1.66c-1,-0.91 -1.94,-1.82 -2.82,-2.71c-0.66,-0.66 -1.27,-1.32 -1.83,-1.95l-2.64749e-06,-2.98838e-06c-0.634209,-0.71587 -1.23164,-1.4635 -1.78999,-2.23999c-0.23,-0.32 -0.44,-0.63 -0.62,-0.94l-7.18753e-07,-1.17586e-06c-0.864997,-1.41511 -1.44899,-2.98375 -1.72,-4.62l-2.02158e-07,-8.07334e-07c-0.360384,-1.43922 -0.11843,-2.96317 0.67,-4.22l-1.30423e-07,1.44939e-07c0.172525,-0.191727 0.388588,-0.339199 0.63,-0.43l4.58091e-08,-1.54425e-08c0.746042,-0.251496 1.55396,-0.251496 2.3,3.08851e-08l-1.7202e-07,-4.30684e-08c0.487363,0.122021 0.965273,0.279096 1.43,0.469998l0.55,0.24l1,0.42l1,0.4l0.55,0.23c0.76,0.35 1.57,0.75 2.44,1.2c0.62,0.33 1.27,0.68 1.93,1.06c0.66,0.38 1.27,0.73 1.93,1.12c5.92,3.57 12.75,8.65 17.07,13.66l3.11,-2.68c-4.82,-5.58 -12.78,-11.5 -19.63,-15.43c-0.66,-0.37 -1.3,-0.73 -1.94,-1.07l-0.86,-0.46l1.25803e-07,1.2119e-07c-0.317954,-0.306294 -0.6703,-0.574748 -1.05,-0.8l-0.26,-0.17c-1,-0.62 -1.88,-1.19 -2.66,-1.73c-0.78,-0.54 -1.35,-0.95 -1.9,-1.37c-0.76,-0.6 -1.38,-1.12 -1.87,-1.59c-2.27,-2.18 -1.9,-3.07 -1.82,-3.21l-4.88618e-08,1.02807e-07c0.490238,-1.03148 1.38942,-1.81101 2.48,-2.15l-5.7052e-07,1.31135e-07c0.68202,-0.156764 1.38699,-0.187267 2.08,-0.0900002l-1.60487e-07,-2.10961e-08c0.677195,0.0890179 1.34605,0.232822 2,0.429999l8.05732e-07,2.42923e-07c1.02183,0.308076 2.02373,0.678778 3,1.11c0.62,0.26 1.26,0.55 2,0.88l0.25,0.12c0.56,0.27 1.13,0.55 1.7,0.85c10.31,5.32 22.91,14.6 23,14.66c17.64,14.16 27.12,65.16 25.4,78c-1,0 -2.34,0.13 -3.83,0.3c-11.13,1.28 -32.79,6.2 -37,7.61h-0.17l-1.78882e-06,7.05129e-07c-1.00248,0.395164 -2.04057,0.693196 -3.1,0.889999c-0.46,-1 -0.6,-4.71 -0.76,-9c-0.16,-4.29 -0.38,-10.4 -1,-18.47c-0.269995,-1.97001 -2.24999,-7.47001 -5.46999,-16.29Zm-15.66,-6.4c0.81,-9.53 -3.18,-19.84 -6.39,-28.13c-3.48,-9 -5.39,-14.56 -2.49,-15.73l0.24,-0.09l0.21,-0.16c1.86,-1.36 4.16,-0.37 6.92,2.07c-0.77,3.07 0,7.1 2.11,10.69l1.37231e-06,2.17662e-06c0.999489,1.58529 2.15164,3.06902 3.44,4.43l-3.71,30.13l-6.24365e-07,-2.53747e-06c-0.258246,-1.04953 -0.36931,-2.12988 -0.330001,-3.21Zm9.11,24.65l2.22,-18c0.14,0.4 0.29,0.8 0.44,1.2c2.22,6.09 5,13.67 5.12,15.24c0.47,6 0.72,10.88 0.88,14.78l5.3045e-06,6.44173e-06c-3.35442,-4.07357 -6.24551,-8.50747 -8.62,-13.22Zm-8.07,116.14c0.86,0.52 7.9,4.35 10.82,4.52c0.34,15.66 0.54,31.48 -0.11,33.6l3.9,1.27c1.07,-3.32 0.61,-24.48 -0.16,-54c-0.23,-8.89 -0.44,-16.88 -0.49,-21.58c0.09,-9.12 0,-22.72 0,-35.67c0,-4 0,-7.54 0,-8.44c0.27,-0.76 1.6,-2.84 8.14,-5.69c1.24,-0.54 2.57,-1.06 4,-1.56l0.18,-0.07c4.83,-1.69 24.64,-5.9 34.87,-7.32c2.22,-0.18 4.3,-0.29 6.19,-0.31l1.61,0.45l0.14,-0.45c3.42,0.06 6,0.43 7.38,1.17c0.93,0.94 5.66,9.46 14.18,85.32c4.77,42.58 8.27,84.61 8.29,92.16c0.09,28.06 -11.43,45.48 -33.3,50.37c-14.1,3.15 -31.58,0.88 -49.68,-6.21c-4,-60.41 -12.86,-111.29 -32.38,-135.45l-1.02988e-05,-4.19684e-06c5.63963,2.2982 11.1362,4.93294 16.46,7.89Z"></path><path d="M764.37,1325.33c-43.11,-1.73 -75,-16.46 -89.79,-61.9l0.81,2.48c-1.7,0.9 -4.84,1.59 -8.88,2.13c0.17,-1.64 0.35,-3.35 0.53,-5.07c0.61,-5.73 1.09,-10.51 1.47,-14.52l-2,0.11l-2.08,0.11c-0.47,4.87 -1,9.85 -1.42,13.87c-0.22,2.1 -0.43,4.1 -0.63,6c-11.32,1.08 -27.18,1.28 -39.55,1.44c0,-6.17 -0.06,-13.19 -0.08,-19.06l-2.05,0.11l-2,0.11c0,3.94 0,8.4 0,12.77c0,2.09 0,4.15 0,6.13c-5,0.07 -9.24,0.15 -11.89,0.31c3.63,10.39 1.42,23.72 1,35.47c9,7.79 20.29,12.17 33.4,17.26c5.9,2.29 12,4.66 18.5,7.54l1.15,0.5c12.46,5.42 25.19,12 25.12,19.57l2.10875e-07,-0.000226406c-0.000446037,0.488277 -0.0574757,0.974858 -0.169948,1.45c35.57,0.06 96.43,-2.9 104.13,-6.33c-0.0500525,-0.0397781 -3.33005,-19.5898 -25.5701,-20.4798Z"></path><path d="M516.5,1292.19c-0.06,5.88 -0.11,12 -0.47,17.56c-1.36,21.17 -2.25,35.48 -2.16,40.56l-5.81047e-06,4.98884e-07c5.14082,-0.441388 10.3009,-0.618289 15.4599,-0.530002c2.84,0 5.29,0 6.56,-0.1c2.81,-0.15 4.55,-2.53 6.7,-5.88c1.78,-2.77 3.63,-5.62 6.9,-5.44c3.27,0.18 6.3,3.61 10.72,12.54c4.19,1.31 25.87,3.18 56.94,4.2c36,1.18 55.74,0.32 58.88,-1l-8.06854e-07,2.94884e-07c1.28415,-0.469325 2.48321,-1.14485 3.55,-2l4.93342e-08,-3.59387e-08c0.47535,-0.346283 0.792266,-0.868474 0.88,-1.45c0,-1.5 -2.09,-5.92 -21.83,-14.51l-1.19,-0.52c-2.7,-1.2 -5.34,-2.3 -7.94,-3.36l-1,-0.41c-3.17,-1.28 -6.27,-2.49 -9.32,-3.67c-11.79,-4.58 -22.49,-8.73 -31.51,-15.39c-10.32,-7.62 -18.45,-18.53 -23.53,-37.14l7.32744e-06,-1.40596e-06c-4.6672,0.895522 -9.39942,1.41055 -14.15,1.54l-2,0.09l-2.06,0.07c-11.09,0.36 -25,0.2 -39.18,-0.06h-2.06h-0.27h-1.79l-5.61,-0.1c-0.409914,3.68 -0.459914,9.21 -0.519914,15Z"></path><path d="M523.49,233.73l-8.5923e-08,-2.62583e-08c-0.259558,-0.0793216 -0.528681,-0.123054 -0.8,-0.13l-6.28575e-08,1.12428e-09c-1.4817,0.0265017 -2.67802,1.2184 -2.71,2.7v0l3.82181e-09,1.04139e-06c0.00548472,1.49441 1.21559,2.70452 2.71,2.71h0.19l5.30168e-08,-3.89065e-09c1.41386,-0.103756 2.51303,-1.27244 2.53,-2.69l1.03303e-07,2.90169e-05c-0.00423186,-1.19048 -0.782146,-2.23987 -1.91997,-2.59002Z"></path><path d="M691.39,150.06l-6.79567e-07,-3.80905e-07c3.16481,1.77391 6.15479,3.84312 8.93,6.18l2.77,-3l1.99178e-08,1.68701e-08c-2.97095,-2.51637 -6.17551,-4.74315 -9.57,-6.65l6.54731e-07,3.69077e-07c-4.56151,-2.57136 -8.82417,-5.64007 -12.71,-9.15c-0.07,-0.07 -11.08,-8.51 -12.08,-8.86l-0.8,2.33l-0.86,1.4c0.79,0.49 10.11,7.41 10.92,8.11l-5.70123e-06,-5.13792e-06c4.09984,3.69476 8.59351,6.92752 13.4,9.64Z"></path><path d="M688.5,168.5l1.82,-3.67c-4,-2 -11.07,-3.35 -17.92,-4.68l-5.25442e-07,-8.79507e-08c-4.41257,-0.738594 -8.77702,-1.74038 -13.07,-3l-1.33,3.85l6.12046e-06,1.82214e-06c4.47415,1.33201 9.02606,2.38733 13.6299,3.15998c6.5701,1.29002 13.3701,2.61002 16.8701,4.34002Z"></path><path d="M661.19,180.17v4.1l1.68404e-06,-4.81574e-08c3.07708,-0.0879931 6.14439,-0.388709 9.17997,-0.899995l-9.90162e-07,1.68154e-07c3.06481,-0.520481 6.16246,-0.824565 9.26997,-0.909999v-4.1l-1.55753e-06,3.86349e-08c-3.30506,0.0819828 -6.60008,0.399454 -9.86,0.95l1.39211e-06,-2.37535e-07c-2.84002,0.484592 -5.71019,0.771944 -8.58992,0.859994Z"></path><path d="M1106.25,961.78c-1.56,3.48 0.85,9.56 4,12.91c4,3.08 7.66,4.17 10.62,3.17c2.71,-0.91 4.83,-3.62 5.83,-7.42c1.38,-5.26 1.52,-8.65 0.44,-10.08c-1.08,-1.43 -4.59,-1.59 -8.92,-1.66c-1.22,0 -2.51,0 -3.86,-0.09c-4.36,-0.17 -7.09,0.9 -8.11,3.17Z"></path></g></svg>