<svg id="ghost" xmlns="http://www.w3.org/2000/svg" width="19.963" height="22.815" viewBox="0 0 19.963 22.815">
  <path id="Caminho_34" data-name="Caminho 34" d="M17.824,22.815a2.143,2.143,0,0,0,2.139-2.15V10.038A9.992,9.992,0,0,0,9.5.012,10.116,10.116,0,0,0,0,10.311V20.665a2.139,2.139,0,1,0,4.278,0v-.754a1.782,1.782,0,1,1,3.565,0v.754a2.139,2.139,0,1,0,4.278,0v-.754a1.782,1.782,0,1,1,3.565,0v.754A2.143,2.143,0,0,0,17.824,22.815ZM13.9,17.4a2.5,2.5,0,0,0-2.5,2.508v.754a1.426,1.426,0,1,1-2.852,0v-.754a2.5,2.5,0,1,0-4.991,0v.754a1.426,1.426,0,1,1-2.852,0V10.311A9.4,9.4,0,0,1,9.53.724a9.282,9.282,0,0,1,9.72,9.314V20.665a1.426,1.426,0,1,1-2.852,0v-.754A2.5,2.5,0,0,0,13.9,17.4Z" transform="translate(0 0)"/>
  <path id="Caminho_35" data-name="Caminho 35" d="M16.5,16.358a5.994,5.994,0,0,1-9.209,0,.356.356,0,0,0-.547.457,6.707,6.707,0,0,0,10.3,0,.357.357,0,0,0-.548-.457Z" transform="translate(-1.911 -4.659)"/>
  <path id="Caminho_36" data-name="Caminho 36" d="M9.851,11.92a1.406,1.406,0,1,0-1.407-1.406A1.408,1.408,0,0,0,9.851,11.92Zm0-2.1a.693.693,0,1,1-.694.694A.694.694,0,0,1,9.851,9.82Z" transform="translate(-2.424 -2.614)"/>
  <path id="Caminho_37" data-name="Caminho 37" d="M16.632,11.92a1.406,1.406,0,1,0-1.407-1.406A1.408,1.408,0,0,0,16.632,11.92Zm0-2.1a.693.693,0,1,1-.694.694A.694.694,0,0,1,16.632,9.82Z" transform="translate(-4.37 -2.614)"/>
</svg>
