<svg id="grid" xmlns="http://www.w3.org/2000/svg" width="32" height="32" viewBox="0 0 32 32">
  <path id="Caminho_1" data-name="Caminho 1" d="M8,1.5A1.5,1.5,0,0,0,6.5,0h-5A1.5,1.5,0,0,0,0,1.5v5A1.5,1.5,0,0,0,1.5,8h5A1.5,1.5,0,0,0,8,6.5Zm-1,5a.5.5,0,0,1-.5.5h-5A.5.5,0,0,1,1,6.5v-5A.5.5,0,0,1,1.5,1h5a.5.5,0,0,1,.5.5Z"/>
  <path id="Caminho_2" data-name="Caminho 2" d="M20,1.5A1.5,1.5,0,0,0,18.5,0h-5A1.5,1.5,0,0,0,12,1.5v5A1.5,1.5,0,0,0,13.5,8h5A1.5,1.5,0,0,0,20,6.5Zm-1,5a.5.5,0,0,1-.5.5h-5a.5.5,0,0,1-.5-.5v-5a.5.5,0,0,1,.5-.5h5a.5.5,0,0,1,.5.5Z"/>
  <path id="Caminho_3" data-name="Caminho 3" d="M32,1.5A1.5,1.5,0,0,0,30.5,0h-5A1.5,1.5,0,0,0,24,1.5v5A1.5,1.5,0,0,0,25.5,8h5A1.5,1.5,0,0,0,32,6.5Zm-1,5a.5.5,0,0,1-.5.5h-5a.5.5,0,0,1-.5-.5v-5a.5.5,0,0,1,.5-.5h5a.5.5,0,0,1,.5.5Z"/>
  <path id="Caminho_4" data-name="Caminho 4" d="M8,13.5A1.5,1.5,0,0,0,6.5,12h-5A1.5,1.5,0,0,0,0,13.5v5A1.5,1.5,0,0,0,1.5,20h5A1.5,1.5,0,0,0,8,18.5Zm-1,5a.5.5,0,0,1-.5.5h-5a.5.5,0,0,1-.5-.5v-5a.5.5,0,0,1,.5-.5h5a.5.5,0,0,1,.5.5Z"/>
  <path id="Caminho_5" data-name="Caminho 5" d="M20,13.5A1.5,1.5,0,0,0,18.5,12h-5A1.5,1.5,0,0,0,12,13.5v5A1.5,1.5,0,0,0,13.5,20h5A1.5,1.5,0,0,0,20,18.5Zm-1,5a.5.5,0,0,1-.5.5h-5a.5.5,0,0,1-.5-.5v-5a.5.5,0,0,1,.5-.5h5a.5.5,0,0,1,.5.5Z"/>
  <path id="Caminho_6" data-name="Caminho 6" d="M32,13.5A1.5,1.5,0,0,0,30.5,12h-5A1.5,1.5,0,0,0,24,13.5v5A1.5,1.5,0,0,0,25.5,20h5A1.5,1.5,0,0,0,32,18.5Zm-1,5a.5.5,0,0,1-.5.5h-5a.5.5,0,0,1-.5-.5v-5a.5.5,0,0,1,.5-.5h5a.5.5,0,0,1,.5.5Z"/>
  <path id="Caminho_7" data-name="Caminho 7" d="M6.5,24h-5A1.5,1.5,0,0,0,0,25.5v5A1.5,1.5,0,0,0,1.5,32h5A1.5,1.5,0,0,0,8,30.5v-5A1.5,1.5,0,0,0,6.5,24ZM7,30.5a.5.5,0,0,1-.5.5h-5a.5.5,0,0,1-.5-.5v-5a.5.5,0,0,1,.5-.5h5a.5.5,0,0,1,.5.5Z"/>
  <path id="Caminho_8" data-name="Caminho 8" d="M18.5,24h-5A1.5,1.5,0,0,0,12,25.5v5A1.5,1.5,0,0,0,13.5,32h5A1.5,1.5,0,0,0,20,30.5v-5A1.5,1.5,0,0,0,18.5,24Zm.5,6.5a.5.5,0,0,1-.5.5h-5a.5.5,0,0,1-.5-.5v-5a.5.5,0,0,1,.5-.5h5a.5.5,0,0,1,.5.5Z"/>
  <path id="Caminho_9" data-name="Caminho 9" d="M30.5,24h-5A1.5,1.5,0,0,0,24,25.5v5A1.5,1.5,0,0,0,25.5,32h5A1.5,1.5,0,0,0,32,30.5v-5A1.5,1.5,0,0,0,30.5,24Zm.5,6.5a.5.5,0,0,1-.5.5h-5a.5.5,0,0,1-.5-.5v-5a.5.5,0,0,1,.5-.5h5a.5.5,0,0,1,.5.5Z"/>
</svg>
