<svg id="grid-even" xmlns="http://www.w3.org/2000/svg" width="32" height="32" viewBox="0 0 32 32">
  <path id="Caminho_10" data-name="Caminho 10" d="M30.208,0H1.792A1.794,1.794,0,0,0,0,1.792V30.208A1.794,1.794,0,0,0,1.792,32H30.209A1.794,1.794,0,0,0,32,30.208V1.792A1.794,1.794,0,0,0,30.208,0ZM1,11h9V21H1Zm10,0H21V21H11Zm11,0h9V21H22ZM30.208,1A.793.793,0,0,1,31,1.792V10H22V1ZM21,1v9H11V1ZM1,1.792A.793.793,0,0,1,1.792,1H10v9H1ZM1.792,31A.793.793,0,0,1,1,30.208V22h9v9ZM11,31V22H21v9Zm20-.792a.793.793,0,0,1-.792.792H22V22h9Z"/>
</svg>
