<svg id="image" xmlns="http://www.w3.org/2000/svg" width="28.518" height="22.815" viewBox="0 0 28.518 22.815">
  <path id="Caminho_38" data-name="Caminho 38" d="M9.024,12.424A3.565,3.565,0,1,0,5.459,8.859,3.569,3.569,0,0,0,9.024,12.424Zm0-6.417A2.852,2.852,0,1,1,6.172,8.859,2.855,2.855,0,0,1,9.024,6.007Z" transform="translate(-1.567 -1.52)"/>
  <path id="Caminho_39" data-name="Caminho 39" d="M28.519,21.745V1.069A1.071,1.071,0,0,0,27.449,0H1.069A1.071,1.071,0,0,0,0,1.069V21.745a1.071,1.071,0,0,0,1.069,1.069h26.38A1.071,1.071,0,0,0,28.519,21.745Zm-27.806,0V1.069A.357.357,0,0,1,1.069.713h26.38a.357.357,0,0,1,.356.356V21.745a.357.357,0,0,1-.356.356H1.069A.357.357,0,0,1,.713,21.745Z"/>
  <path id="Caminho_40" data-name="Caminho 40" d="M20.488,10.972a.98.98,0,0,0-1.382,0L11.16,18.921a.263.263,0,0,1-.37.006L8.948,17.195a.976.976,0,0,0-1.363.021L2.6,22.2a.357.357,0,0,0,.5.5L8.09,17.721a.266.266,0,0,1,.371-.006L10.3,19.447a.973.973,0,0,0,1.362-.021l7.946-7.947a.265.265,0,0,1,.375,0l6.86,6.82a.356.356,0,0,0,.5-.505Z" transform="translate(-0.718 -3.068)"/>
</svg>
