<svg id="link" xmlns="http://www.w3.org/2000/svg" width="22.815" height="22.815" viewBox="0 0 22.815 22.815">
  <path id="Caminho_61" data-name="Caminho 61" d="M22.815,4.349a4.349,4.349,0,0,0-7.424-3.075L11.82,4.845a4.343,4.343,0,0,0-.24,5.886l-.85.85a4.342,4.342,0,0,0-5.886.24L1.275,15.391a4.348,4.348,0,1,0,6.149,6.15l3.571-3.571a4.343,4.343,0,0,0,.24-5.886l.85-.85a4.342,4.342,0,0,0,5.886-.24L21.54,7.424A4.319,4.319,0,0,0,22.815,4.349ZM11.556,14.9a3.61,3.61,0,0,1-1.065,2.571L6.92,21.037a3.636,3.636,0,1,1-5.142-5.142l3.571-3.571a3.6,3.6,0,0,1,4.865-.227L8.262,14.049a.357.357,0,0,0,.5.5L10.719,12.6A3.6,3.6,0,0,1,11.556,14.9Zm5.91-4.4a3.6,3.6,0,0,1-4.865.227l1.68-1.68a.356.356,0,0,0-.5-.5l-1.68,1.68a3.6,3.6,0,0,1,.227-4.865l3.571-3.571A3.636,3.636,0,1,1,21.037,6.92Z"/>
</svg>
