<svg id="list" xmlns="http://www.w3.org/2000/svg" width="27.093" height="22.815" viewBox="0 0 27.093 22.815">
  <path id="Caminho_41" data-name="Caminho 41" d="M28.606,0H9.356a.356.356,0,1,0,0,.713h19.25a.358.358,0,0,1,.356.356V4.634a.358.358,0,0,1-.356.356H9.356a.356.356,0,0,0,0,.713h19.25a1.071,1.071,0,0,0,1.069-1.069V1.069A1.071,1.071,0,0,0,28.606,0Z" transform="translate(-2.583)"/>
  <path id="Caminho_42" data-name="Caminho 42" d="M2.852,5.7A2.852,2.852,0,1,0,0,2.852,2.855,2.855,0,0,0,2.852,5.7Zm0-4.991A2.139,2.139,0,1,1,.713,2.852,2.141,2.141,0,0,1,2.852.713Z"/>
  <path id="Caminho_43" data-name="Caminho 43" d="M28.606,12H9.356a.356.356,0,0,0,0,.713h19.25a.358.358,0,0,1,.356.356v3.565a.358.358,0,0,1-.356.356H9.356a.356.356,0,0,0,0,.713h19.25a1.071,1.071,0,0,0,1.069-1.069V13.069A1.071,1.071,0,0,0,28.606,12Z" transform="translate(-2.583 -3.444)"/>
  <path id="Caminho_44" data-name="Caminho 44" d="M2.852,17.7A2.852,2.852,0,1,0,0,14.852,2.855,2.855,0,0,0,2.852,17.7Zm0-4.991A2.139,2.139,0,1,1,.713,14.852,2.141,2.141,0,0,1,2.852,12.713Z" transform="translate(0 -3.444)"/>
  <path id="Caminho_45" data-name="Caminho 45" d="M28.606,24H9.356a.356.356,0,0,0,0,.713h19.25a.358.358,0,0,1,.356.356v3.565a.358.358,0,0,1-.356.356H9.356a.356.356,0,1,0,0,.713h19.25a1.071,1.071,0,0,0,1.069-1.069V25.069A1.071,1.071,0,0,0,28.606,24Z" transform="translate(-2.583 -6.889)"/>
  <path id="Caminho_46" data-name="Caminho 46" d="M2.852,29.7A2.852,2.852,0,1,0,0,26.852,2.855,2.855,0,0,0,2.852,29.7Zm0-4.991A2.139,2.139,0,1,1,.713,26.852,2.142,2.142,0,0,1,2.852,24.713Z" transform="translate(0 -6.889)"/>
</svg>
