<svg id="map-pointer" xmlns="http://www.w3.org/2000/svg" width="22.816" height="22.814" viewBox="0 0 22.816 22.814">
  <path id="Caminho_47" data-name="Caminho 47" d="M.672,21.406l6.681,2.668a.348.348,0,0,0,.133.026.359.359,0,0,0,.133-.026l7-2.8,6.759,2.453a1.056,1.056,0,0,0,.365.064,1.069,1.069,0,0,0,1.069-1.069V7.84a1.073,1.073,0,0,0-.7-1.005L17.835,5.282a.357.357,0,0,0-.244.671l4.276,1.552a.357.357,0,0,1,.235.334V22.726a.355.355,0,0,1-.152.292.351.351,0,0,1-.326.043l-6.652-2.415V14.831a.356.356,0,1,0-.713,0v5.823L7.843,23.216V15.544a.356.356,0,0,0-.713,0v7.673L.937,20.744a.355.355,0,0,1-.224-.332V5.545A.357.357,0,0,1,1.2,5.215l2.31.923a.357.357,0,0,0,.265-.662l-2.31-.923A1.069,1.069,0,0,0,0,5.545V20.413A1.064,1.064,0,0,0,.672,21.406Z" transform="translate(0 -1.285)"/>
  <path id="Caminho_48" data-name="Caminho 48" d="M11.851,16.018a.882.882,0,0,0,1.452,0l2.635-3.784,1.479-2.25a6.135,6.135,0,0,0,1.263-4.7,6.186,6.186,0,0,0-12.306.882,6.636,6.636,0,0,0,1.494,4.091ZM12.557.713A5.71,5.71,0,0,1,13.2.75a5.45,5.45,0,0,1,3.643,8.815l-1.492,2.267-2.632,3.779c-.088.128-.191.128-.279,0L8.447,9.845A5.988,5.988,0,0,1,7.085,6.167,5.47,5.47,0,0,1,12.557.713Z" transform="translate(-1.829 -0.001)"/>
  <path id="Caminho_49" data-name="Caminho 49" d="M14.141,9.929A2.139,2.139,0,1,0,12,7.79,2.142,2.142,0,0,0,14.141,9.929Zm0-3.565A1.426,1.426,0,1,1,12.715,7.79,1.427,1.427,0,0,1,14.141,6.364Z" transform="translate(-3.445 -1.623)"/>
</svg>
