<svg id="paper" xmlns="http://www.w3.org/2000/svg" width="22.815" height="22.815" viewBox="0 0 22.815 22.815">
  <path id="Caminho_66" data-name="Caminho 66" d="M16.764,9.991a.357.357,0,0,0,.356-.356V5.356A.357.357,0,0,0,16.764,5H5.356A.357.357,0,0,0,5,5.356V9.634a.357.357,0,0,0,.356.356ZM5.713,5.713H16.407V9.278H5.713Z" transform="translate(-1.435 -1.435)"/>
  <path id="Caminho_67" data-name="Caminho 67" d="M4.5,16.356a.357.357,0,0,0,.356.356H16.264a.356.356,0,0,0,0-.713H4.856A.357.357,0,0,0,4.5,16.356Z" transform="translate(-1.292 -4.593)"/>
  <path id="Caminho_68" data-name="Caminho 68" d="M4.856,21.713H16.264a.356.356,0,0,0,0-.713H4.856a.356.356,0,0,0,0,.713Z" transform="translate(-1.292 -6.028)"/>
  <path id="Caminho_69" data-name="Caminho 69" d="M4.856,25.713H16.264a.356.356,0,0,0,0-.713H4.856a.356.356,0,0,0,0,.713Z" transform="translate(-1.292 -7.176)"/>
  <path id="Caminho_70" data-name="Caminho 70" d="M21.745,4.991h-1.5a.356.356,0,0,0,0,.713h1.5a.357.357,0,0,1,.356.356V21.745a.357.357,0,0,1-.356.356H18.537V1.069A1.071,1.071,0,0,0,17.468,0H1.069A1.071,1.071,0,0,0,0,1.069V21.288a1.528,1.528,0,0,0,1.526,1.526H14.972a.356.356,0,0,0,0-.713H1.526a.815.815,0,0,1-.813-.813V1.069A.357.357,0,0,1,1.069.713h16.4a.357.357,0,0,1,.356.356V22.458a.357.357,0,0,0,.356.356h3.565a1.071,1.071,0,0,0,1.069-1.069V6.06A1.071,1.071,0,0,0,21.745,4.991Z"/>
</svg>
