<svg id="pencil" xmlns="http://www.w3.org/2000/svg" width="22.867" height="22.857" viewBox="0 0 22.867 22.857">
  <path id="Caminho_65" data-name="Caminho 65" d="M1.172,14.475a.356.356,0,0,0-.088.123,1.063,1.063,0,0,0-.2.485l-.955,7.788,7.788-.955a1.072,1.072,0,0,0,.5-.214.335.335,0,0,0,.07-.049c.019-.017.044-.026.063-.044L22.478,7.478a1.08,1.08,0,0,0,0-1.526L16.846.321a1.106,1.106,0,0,0-1.526,0L1.189,14.452A.284.284,0,0,0,1.172,14.475ZM11.515,5.133l1.27,1.27L2.853,16.336A12.382,12.382,0,0,1,1.848,14.8Zm-3.5,15.8c-.547-.333-1.054-.675-1.52-1.021l9.9-9.9,1.27,1.27ZM5.978,19.421a.324.324,0,0,0-.041.062A18.171,18.171,0,0,1,3.3,16.9l9.99-9.99,2.6,2.6ZM7.2,21.263l-3.975.487c-1.35-.2-2.043-1.772-2.18-2.12l.485-3.958A18.154,18.154,0,0,0,7.2,21.263ZM.889,20.872a4.136,4.136,0,0,0,.962,1.046l-1.107.135ZM15.824.825a.366.366,0,0,1,.518,0l5.632,5.632a.367.367,0,0,1,0,.518l-3.8,3.8-6.15-6.15Z" transform="translate(0.074 -0.015)"/>
</svg>
