<svg xmlns="http://www.w3.org/2000/svg" viewBox="2789 1287 41.519 47.45"><defs><style>.a{fill:#c4c3c7;}</style></defs><path class="a" d="M36.655,0H4.864A4.875,4.875,0,0,0,0,4.887V36.963a4.875,4.875,0,0,0,4.864,4.887h26.9L30.51,37.462l3.037,2.823,2.871,2.657,5.1,4.508V4.887A4.875,4.875,0,0,0,36.655,0ZM27.5,30.985s-.854-1.02-1.566-1.922a7.487,7.487,0,0,0,4.294-2.823,13.56,13.56,0,0,1-2.728,1.4,15.613,15.613,0,0,1-3.44,1.02,16.62,16.62,0,0,1-6.145-.024,19.93,19.93,0,0,1-3.488-1.02,13.921,13.921,0,0,1-1.732-.807c-.071-.048-.142-.071-.213-.119a.328.328,0,0,1-.095-.071c-.427-.237-.664-.4-.664-.4a7.378,7.378,0,0,0,4.152,2.8c-.712.9-1.59,1.969-1.59,1.969-5.243-.166-7.236-3.606-7.236-3.606a31.772,31.772,0,0,1,3.416-13.832,11.732,11.732,0,0,1,6.667-2.491l.237.285a16,16,0,0,0-6.24,3.108s.522-.285,1.4-.688a17.815,17.815,0,0,1,5.386-1.495,2.325,2.325,0,0,1,.4-.048,20.074,20.074,0,0,1,4.792-.047,19.34,19.34,0,0,1,7.141,2.278,15.789,15.789,0,0,0-5.907-3.013l.332-.38a11.73,11.73,0,0,1,6.667,2.491,31.77,31.77,0,0,1,3.417,13.832s-2.017,3.44-7.26,3.606ZM16.465,19.905a2.643,2.643,0,0,0,0,5.267,2.528,2.528,0,0,0,2.42-2.634,2.512,2.512,0,0,0-2.42-2.633m8.66,0a2.643,2.643,0,1,0,2.42,2.633,2.528,2.528,0,0,0-2.42-2.633" transform="translate(2789 1287)"/></svg>