<svg xmlns="http://www.w3.org/2000/svg" viewBox="2864 1288 45.109 45.108"><defs><style>.a{fill:#c4c3c7;}</style></defs><path class="a" d="M22.554,45.108a22.56,22.56,0,0,1-8.78-43.335A22.56,22.56,0,0,1,31.334,43.335,22.418,22.418,0,0,1,22.554,45.108Zm-.024-22.271c.277,0,.5,0,.711,0,.009,1.9.007,3.829.005,5.7v.125c0,2.291-.005,4.66.012,7.006.561,0,1.139,0,1.993,0H27.3l1.253,0c.008-2.213.007-4.463.007-6.64v-.19c0-1.958,0-3.983,0-5.993.4,0,.782,0,1.108,0H31c.438,0,.8,0,1.126,0,.247-1.681.4-3.057.49-4.329-.4,0-.793,0-1.162,0H29.841c-.374,0-.816,0-1.258,0q0-.422,0-.845v0c0-.7,0-1.433.006-2.156a1.27,1.27,0,0,1,1.218-.983l.067,0h2.752c.007-1.371.007-2.841,0-4.491l-1.064,0H31.55l-1.324,0c-.721,0-1.312,0-1.859.007A5.533,5.533,0,0,0,24.6,11.342a4.5,4.5,0,0,0-1.334,2.983c-.03.8-.026,1.607-.022,2.391v.038c0,.578.006,1.175,0,1.762-.234,0-.452,0-.684,0H21.5c-.329,0-.594,0-.836,0q0,.783,0,1.566c0,.9,0,1.827,0,2.745.251,0,.519.006.894.006h.979Z" transform="translate(2864 1288)"/></svg>