<svg xmlns="http://www.w3.org/2000/svg" viewBox="3024.5 1292.5 43.584 35.409"><defs><style>.a{fill:#c4c3c7;}</style></defs><path class="a" d="M29.121.008V0h2.044l.747.149a7.987,7.987,0,0,1,1.356.381,9.644,9.644,0,0,1,1.179.55,11.212,11.212,0,0,1,1.034.641,6.361,6.361,0,0,1,.825.684,1.145,1.145,0,0,0,1.128.189A15.086,15.086,0,0,0,39.084,2.1q.884-.314,1.749-.707T41.886.9l.2-.118L42.09.766l.039-.02.039-.02.039-.02.039-.02.008-.012.012-.008L42.279.66l.008-.012.039-.012.039-.008-.008.059-.012.059-.02.059-.02.059L42.287.9l-.02.039L42.247,1a1.367,1.367,0,0,0-.039.157,6.592,6.592,0,0,1-.373.786,9.83,9.83,0,0,1-.884,1.4A6.859,6.859,0,0,1,40,4.409q-.424.365-.562.511A1.687,1.687,0,0,1,39.1,5.2l-.2.13-.039.02-.039.02-.008.012-.012.008-.012.008-.008.012-.039.02-.039.02-.008.012-.012.008-.012.008-.008.012-.008.012-.012.008-.012.008-.008.012h.2l1.1-.236a19.692,19.692,0,0,0,2.1-.57l1.061-.354.118-.039.059-.02.039-.02.039-.02.039-.02.039-.02.079-.012.079-.008v.079l-.02.008-.02.012-.008.012-.012.008-.012.008-.008.012-.008.012-.012.008-.012.008-.008.012-.008.012-.012.008-.02.039-.02.039-.012.008-.5.668a5.524,5.524,0,0,1-.531.668q-.039.012-.11.118a11.262,11.262,0,0,1-.833.876,19.781,19.781,0,0,1-1.5,1.364,1.861,1.861,0,0,0-.747,1.478q-.012.872-.09,1.973t-.295,2.378a28.346,28.346,0,0,1-.668,2.889,26.26,26.26,0,0,1-1.1,3.144,24.5,24.5,0,0,1-1.356,2.751q-.707,1.218-1.3,2.063t-1.2,1.592q-.609.747-1.541,1.682t-1.022,1.022q-.09.086-.77.645t-1.454,1.124a16.819,16.819,0,0,1-1.423.931q-.648.373-1.564.853a18.609,18.609,0,0,1-1.973.9q-1.061.413-2.24.766a20.462,20.462,0,0,1-2.279.55q-1.1.2-2.5.334l-1.4.138v.02H12.458v-.02l-.334-.02q-.334-.02-.55-.039t-1.631-.216q-1.415-.2-2.22-.393t-2.4-.747A23.326,23.326,0,0,1,2.6,32.863q-1.128-.558-1.415-.707T.55,31.794L.2,31.578l-.008-.012-.012-.008L.165,31.55l-.008-.012-.039-.02L.079,31.5l-.008-.012-.012-.008-.012-.008L.039,31.46l-.008-.012L.02,31.44H0v-.079l.039.008.039.012.177.02q.177.02.963.059t1.67,0A17.572,17.572,0,0,0,4.7,31.283a20.367,20.367,0,0,0,2.181-.472,16.116,16.116,0,0,0,2.311-.794q1.049-.464,1.493-.692a14.54,14.54,0,0,0,1.344-.833l.9-.609.008-.012.012-.008.012-.008.008-.012.008-.012.012-.008L13,27.817l.008-.012.039-.012.039-.008.008-.039.012-.039.012-.008.008-.012-.314-.02-.609-.039a5.908,5.908,0,0,1-.924-.177,8.864,8.864,0,0,1-1.356-.472,10.453,10.453,0,0,1-1.415-.747,6.963,6.963,0,0,1-.994-.719q-.3-.283-.786-.8a7.951,7.951,0,0,1-.833-1.073,9.64,9.64,0,0,1-.676-1.269l-.326-.715-.02-.059-.02-.059L4.842,21.5l-.008-.039.059.008.059.012.432.059a9.606,9.606,0,0,0,1.356.039A10.5,10.5,0,0,0,8.017,21.5q.354-.059.432-.079l.079-.02.1-.02.1-.02.008-.012.012-.008.012-.008.008-.012-.079-.02-.079-.02-.079-.02-.079-.02-.079-.02q-.079-.02-.275-.079t-1.061-.432a8.114,8.114,0,0,1-1.375-.727,9.5,9.5,0,0,1-.975-.774,11.122,11.122,0,0,1-1.01-1.093,7.861,7.861,0,0,1-.982-1.552,9.441,9.441,0,0,1-.648-1.69,9.123,9.123,0,0,1-.283-1.631l-.071-.825.039.008.039.012.039.02.039.02.039.02.039.02.609.275a7.685,7.685,0,0,0,1.513.472q.9.2,1.081.216l.177.02h.354l-.008-.012L5.64,13.48l-.012-.008L5.62,13.46l-.008-.012L5.6,13.441l-.012-.008-.008-.012-.039-.02-.039-.02-.008-.012-.012-.008-.012-.008-.008-.012-.039-.02-.039-.02-.008-.012-.338-.252a5.154,5.154,0,0,1-.676-.641q-.354-.393-.707-.825a6.373,6.373,0,0,1-.629-.924A11.2,11.2,0,0,1,2.444,9.4a8.871,8.871,0,0,1-.46-1.521,8.658,8.658,0,0,1-.177-1.513,9.528,9.528,0,0,1,.039-1.277,8.348,8.348,0,0,1,.236-1.2,9.34,9.34,0,0,1,.511-1.415l.334-.747.02-.059.02-.059L2.979,1.6l.008-.012.008-.012.012-.008.012.008.008.012.008.012.012.008.012.008.008.012.008.012.012.008.02.039.02.039.012.008.008.012.531.59q.531.59,1.258,1.317a7.39,7.39,0,0,0,.806.755.575.575,0,0,1,.2.181,8.023,8.023,0,0,0,.786.7q.668.55,1.749,1.277T10.866,8A23.391,23.391,0,0,0,13.7,9.275q1.513.57,2.122.747t2.083.452q1.474.275,2.22.354t1.022.09l.275.008-.008-.059-.012-.059-.079-.491a9.236,9.236,0,0,1-.079-1.376,9.019,9.019,0,0,1,.138-1.631A9.661,9.661,0,0,1,21.792,5.8a8.083,8.083,0,0,1,.538-1.23,12.1,12.1,0,0,1,.7-1.049A8.474,8.474,0,0,1,24.15,2.3a8.265,8.265,0,0,1,1.572-1.12A10.219,10.219,0,0,1,27.353.432,7.6,7.6,0,0,1,28.61.1a4.371,4.371,0,0,0,.511-.09Z" transform="translate(3024.5 1292.5)"/></svg>