<svg xmlns="http://www.w3.org/2000/svg" viewBox="2943 1294 47.901 33.152"><defs><style>.a{fill:#c4c3c7;}</style></defs><path class="a" d="M22.987,33.152c-3.3,0-14.317-.066-17.48-.914a7.138,7.138,0,0,1-2.855-1.57A5.646,5.646,0,0,1,.915,27.98a37.663,37.663,0,0,1-.833-7.094c-.1-2.251-.082-4.1-.08-4.308v-.006c0-.2-.017-2.057.08-4.308A37.664,37.664,0,0,1,.915,5.171,5.649,5.649,0,0,1,2.641,2.483,7.068,7.068,0,0,1,5.507.913C8.848.044,21.021,0,23.428,0h.509c.037,0,3.788,0,7.949.122,3.84.111,8.822.349,10.755.852a5.959,5.959,0,0,1,4.227,4.2,40,40,0,0,1,.894,7.094c.125,2.255.14,4.1.14,4.308v0c0,.019,0,1.958-.125,4.322A39.008,39.008,0,0,1,46.9,27.98a5.711,5.711,0,0,1-1.7,2.688,6.874,6.874,0,0,1-2.835,1.57c-3.341.869-15.515.913-17.921.913h-.515C23.813,33.151,23.487,33.152,22.987,33.152ZM19.344,9.216v14.72L31.3,16.576,19.344,9.216Z" transform="translate(2943 1294)"/></svg>