<svg xmlns="http://www.w3.org/2000/svg" viewBox="0 0 248.41113 227.84245"><title>tlf-full</title><circle cx="118.68944" cy="156.9738" r="17.90576" fill="#3a3a3a"/><path d="M148.80965,179.65436c.11179-.4323,7.20486-25.3062-3.78438-39.7879-14.30216-18.84742-35.631-16.66471-44.56116-27.06025-13.328-15.515,1.71024-32.61074,13.72775-68.63874A417.40392,417.40392,0,0,0,126.129,0a442.68358,442.68358,0,0,0,14.3246,55.50779C148.163,78.59,160.1844,102.55731,162.5374,122.9528,166.64385,158.5467,149.046,179.41216,148.80965,179.65436Z" transform="translate(-0.27734)" fill="#3a3a3a" fill-rule="evenodd"/><path d="M134.21139,25.73929c2.49636-7.96007,3.87385-13.19869,3.87385-13.19869A409.17531,409.17531,0,0,0,148.2033,64.39107c1.73549,6.46374,3.81912,13.02071,5.91613,19.54216-4.13295-10.699-8.56-21.58586-12.15055-32.302C138.95994,42.65062,136.374,33.80672,134.21139,25.73929Z" transform="translate(-0.27734)" fill="#3a3a3a" fill-rule="evenodd"/><path d="M9.334,204.528H.27734v-1.38769h19.605V204.528H10.82617v22.90137H9.334Z" transform="translate(-0.27734)" fill="#3a3a3a"/><path d="M23.90771,203.14031h1.4917v11.416H40.80566v-11.416h1.49219v24.28906H40.80566V215.944H25.39941v11.48535h-1.4917Z" transform="translate(-0.27734)" fill="#3a3a3a"/><path d="M49.79248,203.14031H63.082V204.528H51.28418v9.959h9.68115v1.3877H51.28418v10.167h12.457v1.3877H49.79248Z" transform="translate(-0.27734)" fill="#3a3a3a"/><path d="M69.15967,203.14812h3.40478v21.32324H83.43311v2.958H69.15967Z" transform="translate(-0.27734)" fill="#3a3a3a"/><path d="M99.73926,220.44792H90.59033l-2.40771,6.98145H84.6748l8.73584-24.28125H96.9873l8.73633,24.28125h-3.543Zm-4.5752-13.96386s-.5498,2.20117-.9624,3.43945l-2.71728,7.7041h7.36035l-2.68262-7.7041c-.41309-1.23828-.92871-3.43945-.92871-3.43945Z" transform="translate(-0.27734)" fill="#3a3a3a"/><path d="M109.37207,222.06413a9.5869,9.5869,0,0,0,6.19141,2.61328c2.26953,0,4.19531-1.27246,4.19531-3.57617,0-5.26269-11.76172-4.12695-11.76172-11.59082,0-3.7832,3.2666-6.77539,7.8418-6.77539a9.95066,9.95066,0,0,1,6.87793,2.44141l-1.54785,2.82031a8.559,8.559,0,0,0-5.33008-2.09766c-2.58008,0-4.40235,1.61622-4.40235,3.543,0,5.02149,11.76172,3.67969,11.76172,11.55567,0,3.749-2.88867,6.84472-7.7041,6.84472a11.36011,11.36011,0,0,1-8.04785-3.19922Z" transform="translate(-0.27734)" fill="#3a3a3a"/><path d="M133.2793,206.10515h-8.32325v-2.957h20.05176v2.957h-8.32324v21.32422H133.2793Z" transform="translate(-0.27734)" fill="#3a3a3a"/><path d="M148.92969,203.14031h12.249V204.528H150.42188v10.13184h9.2998v1.38867h-9.2998v11.38086h-1.49219Z" transform="translate(-0.27734)" fill="#3a3a3a"/><path d="M166.55664,203.14031h1.49219v22.90136h11.58984v1.3877h-13.082Z" transform="translate(-0.27734)" fill="#3a3a3a"/><path d="M196.12109,219.03191H185.81543l-3.123,8.39746h-1.5957l9.09082-24.28906h1.5957l9.09082,24.28906h-1.5957Zm-5.17089-14.15625s-.52051,1.873-.90137,2.91406l-3.71289,9.85449h9.26465l-3.67871-9.85449c-.38184-1.041-.90137-2.91406-.90137-2.91406Z" transform="translate(-0.27734)" fill="#3a3a3a"/><path d="M206.49512,203.14031h1.457l7.07812,15.26757c.55567,1.17969,1.17969,2.74121,1.17969,2.74121h.06934s.625-1.56152,1.17968-2.74121l7.07911-15.26757h1.457l1.94336,24.28906h-1.49219l-1.49219-18.5293c-.10351-1.17969-.10351-3.22656-.10351-3.22656h-.07032s-.69336,2.04687-1.249,3.22656l-6.52344,13.84473h-1.52636l-6.48829-13.84473c-.5205-1.14453-1.28418-3.2959-1.28418-3.2959h-.06933s0,2.11621-.10449,3.2959l-1.49121,18.5293h-1.49219Z" transform="translate(-0.27734)" fill="#3a3a3a"/><path d="M234.73926,203.14031h13.29V204.528H236.23145v9.959h9.68066v1.3877h-9.68066v10.167h12.457v1.3877H234.73926Z" transform="translate(-0.27734)" fill="#3a3a3a"/></svg>