<svg xmlns="http://www.w3.org/2000/svg" viewBox="0 0 67.90735 179.65436"><title>tlf-flame</title><circle cx="23.71583" cy="156.9738" r="17.90576" fill="#3a3a3a"/><path d="M53.5587,179.65436c.11179-.4323,7.20486-25.3062-3.78438-39.7879-14.30217-18.84742-35.631-16.66471-44.56116-27.06025-13.328-15.515,1.71023-32.61074,13.72774-68.63874A417.40392,417.40392,0,0,0,30.87807,0,442.68469,442.68469,0,0,0,45.20268,55.50779C52.912,78.59,64.93345,102.55731,67.28644,122.9528,71.39289,158.5467,53.79505,179.41216,53.5587,179.65436Z" fill="#3a3a3a" fill-rule="evenodd"/><path d="M38.96043,25.73929c2.49636-7.96007,3.87385-13.19869,3.87385-13.19869A409.17434,409.17434,0,0,0,52.95235,64.39107c1.73549,6.46374,3.81912,13.02071,5.91612,19.54216-4.133-10.699-8.56-21.58586-12.15055-32.302C43.709,42.65062,41.123,33.80672,38.96043,25.73929Z" fill="#3a3a3a" fill-rule="evenodd"/></svg>