<svg xmlns="http://www.w3.org/2000/svg" viewBox="0 0 248.41113 25.10742"><title>tlf-type</title><path d="M9.334,6.59277H.27734V5.20508H19.88281V6.59277H10.82617V29.49414H9.334Z" transform="translate(-0.27734 -4.7998)" fill="#3a3a3a"/><path d="M23.9082,5.20508h1.49121v11.416H40.80566V5.20508h1.49219V29.49414H40.80566V18.00879H25.39941V29.49414H23.9082Z" transform="translate(-0.27734 -4.7998)" fill="#3a3a3a"/><path d="M49.793,5.20508H63.082V6.59277H51.28418v9.959h9.68164v1.38769H51.28418v10.167h12.457v1.38769H49.793Z" transform="translate(-0.27734 -4.7998)" fill="#3a3a3a"/><path d="M69.16016,5.21289h3.40429V26.53613H83.43359v2.958H69.16016Z" transform="translate(-0.27734 -4.7998)" fill="#3a3a3a"/><path d="M99.73926,22.5127H90.59082l-2.4082,6.98144H84.6748L93.41113,5.21289H96.9873l8.73633,24.28125h-3.543ZM95.16406,8.54883s-.5498,2.20117-.96191,3.43945l-2.71777,7.7041h7.36035l-2.68262-7.7041C95.749,10.75,95.2334,8.54883,95.2334,8.54883Z" transform="translate(-0.27734 -4.7998)" fill="#3a3a3a"/><path d="M109.37207,24.12891a9.5869,9.5869,0,0,0,6.19141,2.61328c2.26953,0,4.19531-1.27246,4.19531-3.57617,0-5.2627-11.76172-4.127-11.76172-11.59082,0-3.78321,3.2666-6.7754,7.8418-6.7754a9.95066,9.95066,0,0,1,6.87793,2.44141L121.169,10.06152a8.559,8.559,0,0,0-5.33008-2.09765c-2.58008,0-4.40235,1.61621-4.40235,3.543,0,5.02148,11.76172,3.67968,11.76172,11.55566,0,3.749-2.88867,6.84473-7.7041,6.84473a11.36011,11.36011,0,0,1-8.04785-3.19922Z" transform="translate(-0.27734 -4.7998)" fill="#3a3a3a"/><path d="M133.2793,8.16992h-8.32325v-2.957h20.05176v2.957h-8.32324V29.49414H133.2793Z" transform="translate(-0.27734 -4.7998)" fill="#3a3a3a"/><path d="M148.92969,5.20508h12.249V6.59277H150.42188V16.72461h9.2998v1.38867h-9.2998V29.49414h-1.49219Z" transform="translate(-0.27734 -4.7998)" fill="#3a3a3a"/><path d="M166.55664,5.20508h1.49219V28.10645h11.58984v1.38769h-13.082Z" transform="translate(-0.27734 -4.7998)" fill="#3a3a3a"/><path d="M196.12109,21.09668H185.81543l-3.123,8.39746h-1.5957L190.1875,5.20508h1.5957L200.874,29.49414h-1.5957ZM190.9502,6.94043s-.52051,1.87305-.90137,2.91406L186.33594,19.709h9.26465l-3.67871-9.85449c-.38184-1.041-.90137-2.91406-.90137-2.91406Z" transform="translate(-0.27734 -4.7998)" fill="#3a3a3a"/><path d="M206.49512,5.20508h1.457l7.07812,15.26758c.55567,1.17968,1.17969,2.74121,1.17969,2.74121h.06934s.625-1.56153,1.17968-2.74121l7.07911-15.26758h1.457l1.94336,24.28906h-1.49219l-1.49219-18.5293c-.10351-1.17968-.10351-3.22656-.10351-3.22656h-.07032s-.69336,2.04688-1.249,3.22656l-6.52344,13.84473h-1.52636l-6.48829-13.84473C208.47266,9.82031,207.709,7.669,207.709,7.669h-.06933s0,2.11621-.10449,3.29589L206.044,29.49414h-1.49219Z" transform="translate(-0.27734 -4.7998)" fill="#3a3a3a"/><path d="M234.73926,5.20508h13.29V6.59277H236.23145v9.959h9.68066v1.38769h-9.68066v10.167h12.457v1.38769H234.73926Z" transform="translate(-0.27734 -4.7998)" fill="#3a3a3a"/></svg>